<?xml version="1.0" encoding="UTF-8"?> <svg xmlns="http://www.w3.org/2000/svg" id="Layer_1" data-name="Layer 1" viewBox="0 0 450 380"><defs><style>.cls-1{fill:#003768;}.cls-2{fill:#ef9f20;}.cls-3{fill:#96c1e8;}.cls-4{fill:#1381bc;}.cls-5{fill:#fff;}.cls-6{fill:#f99f1b;}</style></defs><path class="cls-1" d="M203.16,236.51a10.06,10.06,0,0,1-2.62-.32L178,229.69a12.44,12.44,0,0,1-6.51-5.2l-6.38-11.57a12.64,12.64,0,0,1-1-8.36l6.3-23a12.5,12.5,0,0,1,5.14-6.65l58.39-33.32a9.09,9.09,0,0,1,12.4,3.39l.06.11,24.34,44.14a9.37,9.37,0,0,1-3.54,12.61l-58.37,33.3A11.9,11.9,0,0,1,203.16,236.51ZM238.43,142a7.4,7.4,0,0,0-3.7,1h0l-58.38,33.32A11,11,0,0,0,172,182l-6.3,23a11.19,11.19,0,0,0,.84,7.16l6.38,11.56a10.89,10.89,0,0,0,5.56,4.44l22.55,6.5a10.71,10.71,0,0,0,7.06-.87l58.37-33.3A7.77,7.77,0,0,0,269.34,190L245,145.89a7.52,7.52,0,0,0-6.57-3.87Z"></path><path class="cls-1" d="M197.24,195.86a15.63,15.63,0,0,1,2.35-1.59,4.65,4.65,0,0,1,3.32-.8,2.84,2.84,0,0,1,1.84,1.44,3,3,0,0,1-.45,3.59l0,.05a2.84,2.84,0,0,1,2.59,1.18A17.69,17.69,0,0,0,209.2,202l-1.32.75a15.19,15.19,0,0,1-2-2c-1.06-1.19-1.88-1.42-3.07-.81l-1.2.68,2.41,4.3-1.28.72Zm3.82,3.8,1.31-.74a2.23,2.23,0,0,0,1.29-2.88c0-.09-.07-.17-.11-.26-.72-1.28-2-1.32-3.32-.57a6.25,6.25,0,0,0-1.2.83Z"></path><path class="cls-1" d="M213.18,193.66l-3.86,2.17,2,3.57,4.3-2.4.61,1.07-5.58,3.13-5.57-9.92,5.36-3,.6,1.08L207,191.63l1.76,3.14,3.86-2.17Z"></path><path class="cls-1" d="M212.4,187.35a13.5,13.5,0,0,1,2.23-1.52,4.68,4.68,0,0,1,3.12-.81,2.39,2.39,0,0,1,1.81,1.29,2.68,2.68,0,0,1-.45,3.12v0a3,3,0,0,1,3.45,1.35,3.07,3.07,0,0,1,.27,2.46,5.7,5.7,0,0,1-2.91,2.85,16.89,16.89,0,0,1-2.05,1Zm3.56,3.34,1.17-.65c1.35-.76,1.75-1.92,1.21-2.87-.65-1.16-1.79-1.12-3.08-.4a5.76,5.76,0,0,0-1.09.73Zm2.67,4.75a7.12,7.12,0,0,0,1.11-.54c1.33-.74,2.27-1.91,1.46-3.35s-2.23-1.27-3.63-.48l-1.06.59Z"></path><path class="cls-1" d="M225.73,188.64l.72,3.7-1.33.73-2.19-11.8,1.54-.87,9,8-1.38.77-2.81-2.53Zm2.69-2.83-2.58-2.31c-.58-.52-1.06-1-1.52-1.52h0c.19.67.36,1.37.51,2.08l.64,3.42Z"></path><path class="cls-1" d="M230.67,178.35l-3,1.69L227,179l7.35-4.12.61,1.08-3,1.71,5,8.83-1.3.73Z"></path><path class="cls-1" d="M243.59,176.6l-3.85,2.16,2,3.57,4.3-2.41.6,1.08-5.57,3.13-5.57-9.92,5.35-3,.61,1.07-4.08,2.29,1.76,3.14,3.86-2.17Z"></path><path class="cls-1" d="M247.26,178.6a5.18,5.18,0,0,0,2.66-.64c1.3-.74,1.68-1.86,1.12-2.86s-1.35-1.16-3-.92c-1.94.34-3.41.06-4.19-1.34-.87-1.55-.24-3.41,1.69-4.5a5.23,5.23,0,0,1,2.47-.74l.23,1.24a4.47,4.47,0,0,0-2.15.59c-1.35.76-1.41,1.85-1,2.53.52.93,1.38,1,3,.81,2-.3,3.35,0,4.17,1.49s.47,3.49-1.87,4.81a5.86,5.86,0,0,1-2.89.79Z"></path><path class="cls-2" d="M195.89,225.78l-2.39-4.24A14.22,14.22,0,0,1,186,223.3l-.58-3.39a12.86,12.86,0,0,0,7.08-1.59c3-1.68,4-4.54,2.68-6.93s-3.73-2.83-7.56-2.34c-5.23.73-9,.28-11-3.38-2-3.49-1-7.53,2.55-10.33l-2.38-4.25,2.6-1.47,2.29,4.08a13,13,0,0,1,6.3-1.6l.51,3.37a11.68,11.68,0,0,0-6.11,1.54c-3.23,1.82-3.37,4.44-2.42,6.12,1.22,2.19,3.39,2.42,7.9,1.87,5.33-.66,8.74.3,10.84,4,1.87,3.32,1.3,7.73-2.63,10.88l2.45,4.37Z"></path><path class="cls-1" d="M388.13,143.58v-7h-2.49v-1.27h6.42v1.27h-2.48v7Z"></path><path class="cls-1" d="M395.84,143.58v-.64a2.54,2.54,0,0,1-1.93.79,2,2,0,0,1-2.06-1.88v-.09a1.91,1.91,0,0,1,1.89-1.94h.17a2.46,2.46,0,0,1,1.93.77v-.89c0-.69-.57-1.11-1.4-1.11a2.44,2.44,0,0,0-1.76.75l-.53-.9a3.58,3.58,0,0,1,2.5-1c1.32,0,2.48.56,2.48,2.16v3.94Zm0-1.36v-.89a1.73,1.73,0,0,0-1.42-.62,1.08,1.08,0,1,0-.37,2.13,1.15,1.15,0,0,0,.37,0A1.73,1.73,0,0,0,395.84,142.22Z"></path><path class="cls-1" d="M398.81,143.58v-6h1.29v.87a2.55,2.55,0,0,1,1.94-1v1.29a1.9,1.9,0,0,0-.41,0,2.05,2.05,0,0,0-1.53.79v4.05Z"></path><path class="cls-1" d="M403,145.11l.61-.94a2.27,2.27,0,0,0,1.88.76,1.56,1.56,0,0,0,1.75-1.35,1.11,1.11,0,0,0,0-.26v-.71a2.4,2.4,0,0,1-1.91,1c-1.51,0-2.63-1.09-2.63-3.05a2.69,2.69,0,0,1,2.3-3l.33,0a2.33,2.33,0,0,1,1.91,1v-.83h1.3v5.64c0,2.14-1.59,2.72-3.06,2.72A3.34,3.34,0,0,1,403,145.11Zm4.25-3.46v-2.22a1.82,1.82,0,1,0-1.53,3,2,2,0,0,0,1.53-.8Z"></path><path class="cls-1" d="M409.87,140.6a3,3,0,0,1,2.89-3.12h.12a3,3,0,0,1,2.95,3,2.71,2.71,0,0,1,0,.29V141h-4.6a1.81,1.81,0,0,0,1.9,1.64,2.59,2.59,0,0,0,1.69-.65l.59.85a3.51,3.51,0,0,1-2.42.86,3,3,0,0,1-3.12-2.86A2.44,2.44,0,0,1,409.87,140.6Zm3-2.06a1.64,1.64,0,0,0-1.67,1.58h3.35a1.6,1.6,0,0,0-1.61-1.58Z"></path><path class="cls-1" d="M417.36,142.2v-3.44h-1v-1.13h1V136h1.29v1.63h1.21v1.13h-1.21v3.12c0,.41.2.7.57.7a.83.83,0,0,0,.58-.21l.31,1a1.75,1.75,0,0,1-1.22.38,1.37,1.37,0,0,1-1.53-1.2A1.82,1.82,0,0,1,417.36,142.2Z"></path><path class="cls-1" d="M420.51,142.8l.6-.93a3.07,3.07,0,0,0,2,.84c.77,0,1.17-.34,1.17-.81,0-1.17-3.6-.33-3.6-2.61,0-1,.84-1.81,2.34-1.81a3.41,3.41,0,0,1,2.32.84l-.55.91a2.37,2.37,0,0,0-1.76-.71c-.68,0-1.11.31-1.11.72,0,1.06,3.6.28,3.6,2.64,0,1.05-.87,1.85-2.48,1.85A3.65,3.65,0,0,1,420.51,142.8Z"></path><path class="cls-1" d="M388.13,157.21v-7h-2.49V149h6.42v1.27h-2.48v7Z"></path><path class="cls-1" d="M397.28,157.21v-3.75c0-.92-.48-1.21-1.21-1.21a2,2,0,0,0-1.53.8v4.15h-1.29V149h1.29v3.08a2.81,2.81,0,0,1,2.11-1,1.69,1.69,0,0,1,1.92,1.44,1.62,1.62,0,0,1,0,.44v4.22Z"></path><path class="cls-1" d="M400.25,157.21v-6h1.29v.88a2.55,2.55,0,0,1,1.94-1v1.28a1.9,1.9,0,0,0-.41,0,2.08,2.08,0,0,0-1.53.79v4Z"></path><path class="cls-1" d="M404.16,154.22a3,3,0,0,1,2.89-3.11h.13a2.94,2.94,0,0,1,2.94,2.95c0,.09,0,.19,0,.29v.31h-4.6a1.8,1.8,0,0,0,1.9,1.63,2.52,2.52,0,0,0,1.69-.65l.59.85a3.46,3.46,0,0,1-2.41.86,3,3,0,0,1-3.12-2.86A1.22,1.22,0,0,1,404.16,154.22Zm3-2.05a1.64,1.64,0,0,0-1.68,1.57h3.35a1.59,1.59,0,0,0-1.6-1.58Z"></path><path class="cls-1" d="M410.88,156.43l.59-.94a3,3,0,0,0,2,.84c.77,0,1.17-.33,1.17-.8,0-1.17-3.6-.33-3.6-2.61,0-1,.84-1.81,2.34-1.81a3.45,3.45,0,0,1,2.32.83l-.54.92a2.45,2.45,0,0,0-1.77-.72c-.67,0-1.1.31-1.1.73,0,1.06,3.59.27,3.59,2.64,0,1-.87,1.84-2.47,1.84A3.56,3.56,0,0,1,410.88,156.43Z"></path><path class="cls-1" d="M421.24,157.21v-3.75c0-.92-.48-1.21-1.21-1.21a2,2,0,0,0-1.53.8v4.15h-1.29V149h1.29v3.08a2.81,2.81,0,0,1,2.11-1,1.69,1.69,0,0,1,1.92,1.44,1.62,1.62,0,0,1,0,.44v4.22Z"></path><path class="cls-1" d="M423.84,154.22a3.07,3.07,0,1,1,3.06,3.13,3,3,0,0,1-3.06-2.9Zm4.78,0a1.73,1.73,0,1,0-1.72,2,1.79,1.79,0,0,0,1.73-1.84.76.76,0,0,0,0-.15Z"></path><path class="cls-1" d="M431.27,157.21V149h1.3v8.22Z"></path><path class="cls-1" d="M438.43,157.21v-.82a2.4,2.4,0,0,1-1.91,1c-1.52,0-2.65-1.16-2.65-3.11a2.78,2.78,0,0,1,2.37-3.11l.28,0a2.35,2.35,0,0,1,1.91,1V149h1.3v8.21Zm0-1.79v-2.37a2,2,0,0,0-1.54-.8,2,2,0,0,0,0,4A2,2,0,0,0,438.43,155.42Z"></path><path class="cls-1" d="M440.89,156.43l.59-.94a3.06,3.06,0,0,0,2,.84c.78,0,1.17-.33,1.17-.8,0-1.17-3.6-.33-3.6-2.61,0-1,.84-1.81,2.35-1.81a3.42,3.42,0,0,1,2.31.83l-.54.92a2.42,2.42,0,0,0-1.76-.72c-.68,0-1.11.31-1.11.73,0,1.06,3.6.27,3.6,2.64,0,1-.88,1.84-2.48,1.84A3.58,3.58,0,0,1,440.89,156.43Z"></path><path class="cls-1" d="M369.08,259.08a4.2,4.2,0,1,1,4.2,4.25,4.08,4.08,0,0,1-4.2-3.95Zm6.92,0a2.64,2.64,0,1,0,0,.25c0-.09,0-.17,0-.25Z"></path><path class="cls-1" d="M382.86,263.18v-.79a2.83,2.83,0,0,1-2.11.94,1.68,1.68,0,0,1-1.9-1.44,1.36,1.36,0,0,1,0-.45v-4.21h1.3V261c0,.92.46,1.2,1.19,1.2a2,2,0,0,0,1.53-.77v-4.18h1.29v5.95Z"></path><path class="cls-1" d="M386.09,261.8v-3.43h-1v-1.14h1V255.6h1.29v1.63h1.21v1.14h-1.21v3.11c0,.41.2.7.57.7a.79.79,0,0,0,.58-.21l.31,1a1.69,1.69,0,0,1-1.22.38,1.37,1.37,0,0,1-1.53-1.2A1.82,1.82,0,0,1,386.09,261.8Z"></path><path class="cls-1" d="M389.39,260.2a3,3,0,0,1,2.85-3.12h.23a2.66,2.66,0,0,1,2.28,1.06l-.85.79a1.58,1.58,0,0,0-1.37-.7,2,2,0,0,0,0,3.95,1.62,1.62,0,0,0,1.37-.7l.85.79a2.66,2.66,0,0,1-2.28,1.06,3,3,0,0,1-3.08-2.9Z"></path><path class="cls-1" d="M395.52,260.2a3.06,3.06,0,1,1,3.05,3.13,3,3,0,0,1-3.05-2.9A.89.89,0,0,1,395.52,260.2Zm4.78,0a1.74,1.74,0,1,0-1.73,2,1.78,1.78,0,0,0,1.74-1.83c0-.05,0-.1,0-.15Z"></path><path class="cls-1" d="M410.24,263.18V259.3c0-.64-.28-1.07-1-1.07a1.78,1.78,0,0,0-1.38.79v4.16H406.6V259.3c0-.64-.29-1.07-1-1.07a1.83,1.83,0,0,0-1.37.8v4.15H403v-5.95h1.29V258a2.63,2.63,0,0,1,1.94-1,1.57,1.57,0,0,1,1.63,1.1,2.51,2.51,0,0,1,2-1.1,1.57,1.57,0,0,1,1.72,1.4,1.79,1.79,0,0,1,0,.4v4.3Z"></path><path class="cls-1" d="M412.85,260.2a3,3,0,0,1,2.9-3.12h.12a2.93,2.93,0,0,1,2.94,2.95,2.71,2.71,0,0,1,0,.29v.31h-4.6a1.81,1.81,0,0,0,1.9,1.64,2.5,2.5,0,0,0,1.69-.65l.59.85a3.49,3.49,0,0,1-2.41.86,3,3,0,0,1-3.12-2.86A1.22,1.22,0,0,1,412.85,260.2Zm3-2.06a1.64,1.64,0,0,0-1.68,1.58h3.35a1.58,1.58,0,0,0-1.6-1.58Z"></path><path class="cls-1" d="M369.45,275.57v-8.22h3.61a2.58,2.58,0,0,1,.22,5.15h-2.39v3.07Zm4.82-5.65a1.3,1.3,0,0,0-1.28-1.31h-2.1v2.61h2a1.29,1.29,0,0,0,1.4-1.18.53.53,0,0,0,0-.13Z"></path><path class="cls-1" d="M376.91,275.57v-5.95h1.29v.87a2.55,2.55,0,0,1,1.94-1v1.28a1.93,1.93,0,0,0-.41,0,2,2,0,0,0-1.53.78v4.06Z"></path><path class="cls-1" d="M380.81,272.59a3.07,3.07,0,1,1,3.06,3.13,3,3,0,0,1-3.06-2.9Zm4.78,0a1.73,1.73,0,1,0-1.72,2,1.78,1.78,0,0,0,1.73-1.84.66.66,0,0,0,0-.14Z"></path><path class="cls-1" d="M395.54,275.57v-3.88c0-.64-.28-1.07-1-1.07a1.78,1.78,0,0,0-1.38.78v4.17h-1.3v-3.88c0-.64-.28-1.07-1-1.07a1.78,1.78,0,0,0-1.37.8v4.15h-1.29v-5.95h1.29v.81a2.56,2.56,0,0,1,1.93-1,1.54,1.54,0,0,1,1.63,1.1,2.53,2.53,0,0,1,2-1.1,1.57,1.57,0,0,1,1.72,1.4,1.34,1.34,0,0,1,0,.4v4.3Z"></path><path class="cls-1" d="M398.14,272.59a3.07,3.07,0,1,1,3.06,3.13,3,3,0,0,1-3.06-2.9Zm4.78,0a1.73,1.73,0,1,0-1.72,2,1.78,1.78,0,0,0,1.73-1.84.66.66,0,0,0,0-.14Z"></path><path class="cls-1" d="M405.84,274.19v-3.44h-1v-1.13h1V268h1.29v1.63h1.21v1.13h-1.21v3.12c0,.4.2.7.57.7a.83.83,0,0,0,.58-.21l.3,1a1.74,1.74,0,0,1-1.22.39,1.37,1.37,0,0,1-1.52-1.2A.92.92,0,0,1,405.84,274.19Z"></path><path class="cls-1" d="M409.35,268.09a.8.8,0,1,1,.8.8h0A.8.8,0,0,1,409.35,268.09Zm.16,7.48v-5.95h1.29v5.95Z"></path><path class="cls-1" d="M412.11,272.59a3.06,3.06,0,1,1,3.05,3.13,3,3,0,0,1-3.05-2.9A.88.88,0,0,1,412.11,272.59Zm4.78,0a1.74,1.74,0,1,0-1.73,2,1.79,1.79,0,0,0,1.74-1.84c0-.05,0-.09,0-.14Z"></path><path class="cls-1" d="M423.56,275.57v-3.72c0-.93-.47-1.24-1.2-1.24a2,2,0,0,0-1.53.81v4.15h-1.29v-5.95h1.29v.81a2.86,2.86,0,0,1,2.1-1,1.71,1.71,0,0,1,1.92,1.48,1.55,1.55,0,0,1,0,.43v4.19Z"></path><path class="cls-1" d="M426,274.79l.59-.93a3.1,3.1,0,0,0,2,.83c.78,0,1.17-.33,1.17-.8,0-1.17-3.59-.33-3.59-2.61,0-1,.83-1.81,2.34-1.81a3.38,3.38,0,0,1,2.31.84l-.54.91a2.42,2.42,0,0,0-1.76-.72c-.68,0-1.11.31-1.11.73,0,1.06,3.6.27,3.6,2.64,0,1-.88,1.85-2.48,1.85A3.63,3.63,0,0,1,426,274.79Z"></path><path class="cls-1" d="M5.49,262l.8-1.11a3.54,3.54,0,0,0,2.6,1.14c1.19,0,1.65-.58,1.65-1.12,0-1.73-4.79-.66-4.79-3.69,0-1.35,1.2-2.4,3-2.4A4.31,4.31,0,0,1,11.83,256L11,257.06a3.35,3.35,0,0,0-2.38-.94c-.85,0-1.39.41-1.39,1,0,1.53,4.78.58,4.78,3.65,0,1.37-1,2.54-3.18,2.54A4.4,4.4,0,0,1,5.49,262Z"></path><path class="cls-1" d="M12.94,260.2a3,3,0,0,1,2.89-3.11H16A3,3,0,0,1,18.9,260a2.71,2.71,0,0,1,0,.29v.31h-4.6a1.81,1.81,0,0,0,1.9,1.64,2.53,2.53,0,0,0,1.69-.65l.59.85a3.51,3.51,0,0,1-2.42.86,3,3,0,0,1-3.11-2.86A1.22,1.22,0,0,1,12.94,260.2Zm3-2.06a1.65,1.65,0,0,0-1.68,1.58h3.35a1.59,1.59,0,0,0-1.6-1.58Z"></path><path class="cls-1" d="M23.81,263.18v-.64a2.51,2.51,0,0,1-1.93.79,2,2,0,0,1-2.06-1.88s0-.06,0-.09a1.92,1.92,0,0,1,1.9-1.94h.17a2.46,2.46,0,0,1,1.93.77v-.89c0-.69-.57-1.11-1.4-1.11a2.44,2.44,0,0,0-1.76.75l-.53-.9a3.58,3.58,0,0,1,2.5-1c1.32,0,2.48.56,2.48,2.16v3.94Zm0-1.35v-.9a1.73,1.73,0,0,0-1.42-.62,1.08,1.08,0,1,0-.37,2.13,1.15,1.15,0,0,0,.37,0A1.75,1.75,0,0,0,23.81,261.83Z"></path><path class="cls-1" d="M26.26,262.41l.59-.94a3.06,3.06,0,0,0,2,.84c.78,0,1.17-.34,1.17-.8,0-1.17-3.59-.34-3.59-2.61,0-1,.83-1.82,2.34-1.82a3.38,3.38,0,0,1,2.31.84l-.54.91a2.37,2.37,0,0,0-1.76-.71c-.68,0-1.11.31-1.11.72,0,1.06,3.6.28,3.6,2.64,0,1-.88,1.85-2.48,1.85A3.67,3.67,0,0,1,26.26,262.41Z"></path><path class="cls-1" d="M32.23,260.2a3.06,3.06,0,1,1,3.05,3.13,3,3,0,0,1-3.06-2.9A1.77,1.77,0,0,1,32.23,260.2Zm4.78,0a1.74,1.74,0,1,0-1.73,2A1.79,1.79,0,0,0,37,260.35c0-.05,0-.1,0-.15Z"></path><path class="cls-1" d="M43.67,263.18v-3.72c0-.92-.46-1.23-1.19-1.23A1.94,1.94,0,0,0,41,259v4.15H39.66v-5.95H41V258a2.84,2.84,0,0,1,2.1-1A1.72,1.72,0,0,1,45,258.56a2.06,2.06,0,0,1,0,.43v4.19Z"></path><path class="cls-1" d="M50.28,263.18v-.64a2.5,2.5,0,0,1-1.92.79,2,2,0,0,1-2.07-1.88v-.09a1.91,1.91,0,0,1,1.89-1.94h.18a2.45,2.45,0,0,1,1.92.77v-.89c0-.69-.57-1.11-1.39-1.11a2.43,2.43,0,0,0-1.76.75l-.53-.9a3.55,3.55,0,0,1,2.5-1c1.32,0,2.48.56,2.48,2.16v3.94Zm0-1.35v-.9a1.72,1.72,0,0,0-1.42-.62,1.08,1.08,0,1,0-.37,2.13,1.15,1.15,0,0,0,.37,0A1.74,1.74,0,0,0,50.28,261.83Z"></path><path class="cls-1" d="M53.25,263.18V255h1.3v8.22Z"></path><path class="cls-1" d="M16.34,275.57l-1.83-3.07H13.08v3.07H11.64v-8.22h3.61a2.48,2.48,0,0,1,2.68,2.29,2.72,2.72,0,0,1,0,.28,2.3,2.3,0,0,1-2,2.42l2,3.23Zm.12-5.65a1.3,1.3,0,0,0-1.28-1.31h-2.1v2.61h2a1.29,1.29,0,0,0,1.39-1.18.53.53,0,0,0,0-.13Z"></path><path class="cls-1" d="M18.61,272.59a3,3,0,0,1,2.89-3.12h.12a3,3,0,0,1,2.95,2.95,2.81,2.81,0,0,1,0,.29V273H20a1.81,1.81,0,0,0,1.9,1.64,2.54,2.54,0,0,0,1.69-.66l.59.85a3.47,3.47,0,0,1-2.42.87,3,3,0,0,1-3.11-2.86A1.22,1.22,0,0,1,18.61,272.59Zm3-2.06A1.64,1.64,0,0,0,20,272.11H23.3a1.59,1.59,0,0,0-1.6-1.58Z"></path><path class="cls-1" d="M25.84,275.57v-8.22h1.29v3.09a2.38,2.38,0,0,1,1.91-1c1.53,0,2.64,1.21,2.64,3.13s-1.12,3.12-2.64,3.12a2.41,2.41,0,0,1-1.91-1v.82Zm2.82-1a2,2,0,0,0,0-4,2,2,0,0,0-1.53.82v2.35a1.94,1.94,0,0,0,1.53.79Z"></path><path class="cls-1" d="M36.64,275.57v-.64a2.54,2.54,0,0,1-1.92.79,2,2,0,0,1-2.07-1.89v-.09a1.92,1.92,0,0,1,1.89-1.94h.18a2.48,2.48,0,0,1,1.92.76v-.88c0-.69-.57-1.11-1.4-1.11a2.44,2.44,0,0,0-1.76.75l-.53-.9a3.54,3.54,0,0,1,2.5-1c1.32,0,2.48.55,2.48,2.15v3.95Zm0-1.36v-.9a1.75,1.75,0,0,0-1.42-.61,1.08,1.08,0,1,0-.37,2.13,1.15,1.15,0,0,0,.37,0A1.73,1.73,0,0,0,36.64,274.21Z"></path><path class="cls-1" d="M39.87,274.19v-3.44h-1v-1.13h1V268h1.29v1.63h1.21v1.13H41.16v3.12c0,.4.2.7.57.7a.83.83,0,0,0,.58-.21l.31,1a1.76,1.76,0,0,1-1.22.39,1.37,1.37,0,0,1-1.53-1.2A.91.91,0,0,1,39.87,274.19Z"></path><path class="cls-1" d="M43.17,272.59a3,3,0,0,1,2.9-3.12h.12a3,3,0,0,1,3,2.95,2.83,2.83,0,0,1,0,.29V273H44.53a1.8,1.8,0,0,0,1.89,1.64,2.51,2.51,0,0,0,1.69-.66l.59.85a3.45,3.45,0,0,1-2.41.87,3,3,0,0,1-3.12-2.86Zm3-2.06a1.64,1.64,0,0,0-1.68,1.58h3.36a1.6,1.6,0,0,0-1.61-1.58Z"></path><path class="cls-1" d="M49.89,274.79l.59-.93a3.1,3.1,0,0,0,2,.83c.78,0,1.17-.33,1.17-.8,0-1.17-3.6-.33-3.6-2.61,0-1,.84-1.81,2.34-1.81a3.41,3.41,0,0,1,2.32.84l-.54.91a2.43,2.43,0,0,0-1.76-.72c-.68,0-1.11.31-1.11.73,0,1.06,3.6.27,3.6,2.64,0,1-.88,1.85-2.48,1.85A3.63,3.63,0,0,1,49.89,274.79Z"></path><path class="cls-1" d="M17.67,144.2V136h4A2.1,2.1,0,0,1,24,137.84a1.93,1.93,0,0,1,0,.24A1.84,1.84,0,0,1,22.62,140a2,2,0,0,1,1.59,2,2.16,2.16,0,0,1-2.08,2.23H17.67Zm4.9-5.88a1,1,0,0,0-1-1.07H19.11v2.13h2.31a1,1,0,0,0,1.15-.91A.75.75,0,0,0,22.57,138.32Zm.16,3.46a1.13,1.13,0,0,0-1.11-1.14H19.11v2.28h2.37a1.12,1.12,0,0,0,1.25-1,1.33,1.33,0,0,0,0-.2Z"></path><path class="cls-1" d="M29.64,144.2v-.79a2.84,2.84,0,0,1-2.11.94,1.68,1.68,0,0,1-1.91-1.89v-4.21h1.29V142c0,.93.47,1.21,1.2,1.21a2,2,0,0,0,1.53-.77v-4.18h1.29v5.95Z"></path><path class="cls-1" d="M32.55,145.37a1.34,1.34,0,0,0,.49.1.81.81,0,0,0,.85-.52l.3-.68-2.44-6h1.38l1.73,4.46,1.74-4.46H38l-2.87,7a2,2,0,0,1-2,1.34,3.55,3.55,0,0,1-.73-.08Z"></path><path class="cls-1" d="M38.65,136.72a.8.8,0,1,1,.8.8.8.8,0,0,1-.8-.8Zm.16,7.48v-5.95H40.1v5.95Z"></path><path class="cls-1" d="M45.8,144.2v-3.72c0-.92-.47-1.23-1.2-1.23a2,2,0,0,0-1.53.8v4.15H41.78v-5.95h1.29v.81a2.84,2.84,0,0,1,2.1-1,1.71,1.71,0,0,1,1.92,1.48,1.55,1.55,0,0,1,0,.43v4.19Z"></path><path class="cls-1" d="M48.69,145.73l.61-.94a2.27,2.27,0,0,0,1.88.76,1.56,1.56,0,0,0,1.75-1.35,1.11,1.11,0,0,0,0-.26v-.71a2.38,2.38,0,0,1-1.9,1c-1.52,0-2.64-1.09-2.64-3.05a2.69,2.69,0,0,1,2.3-3,1.87,1.87,0,0,1,.34,0,2.35,2.35,0,0,1,1.9,1v-.82h1.3v5.64c0,2.14-1.59,2.72-3.06,2.72A3.37,3.37,0,0,1,48.69,145.73Zm4.25-3.47v-2.21a1.89,1.89,0,0,0-1.52-.8,1.93,1.93,0,0,0,0,3.82,2,2,0,0,0,1.52-.8Z"></path><path class="cls-1" d="M15.48,152.48a4.14,4.14,0,0,1,4-4.25h.28A3.84,3.84,0,0,1,23.1,150l-1.18.66a2.61,2.61,0,0,0-2.13-1.1,3,3,0,0,0,0,6,3,3,0,0,0,1.95-.74v-1.29H19.28v-1.26h3.9v3.08a4.51,4.51,0,0,1-3.39,1.49,4.16,4.16,0,0,1-4.31-4Z"></path><path class="cls-1" d="M24.65,156.59v-6h1.29v.88a2.55,2.55,0,0,1,1.94-1v1.28a1.9,1.9,0,0,0-.41,0,2.08,2.08,0,0,0-1.53.79v4.06Z"></path><path class="cls-1" d="M28.55,153.6a3.07,3.07,0,1,1,3.06,3.13,3,3,0,0,1-3.06-2.89Zm4.78,0a1.73,1.73,0,1,0-1.72,2,1.8,1.8,0,0,0,1.74-1.84c0-.05,0-.1,0-.15Z"></path><path class="cls-1" d="M40,156.59v-.79a2.85,2.85,0,0,1-2.1.93A1.67,1.67,0,0,1,36,154.85v-4.21h1.29v3.74c0,.93.47,1.21,1.2,1.21a2,2,0,0,0,1.52-.78v-4.17h1.3v6Z"></path><path class="cls-1" d="M44.27,155.76v3.09H43v-8.22h1.29v.82a2.37,2.37,0,0,1,1.91-1c1.54,0,2.64,1.16,2.64,3.11s-1.1,3.13-2.64,3.13A2.32,2.32,0,0,1,44.27,155.76Zm3.2-2.16A1.74,1.74,0,0,0,46,151.65l-.16,0a1.94,1.94,0,0,0-1.53.8v2.36a2,2,0,0,0,1.53.8,1.77,1.77,0,0,0,1.69-1.82c0-.05,0-.11,0-.17Z"></path><path class="cls-1" d="M49.58,155.81l.59-.94a3.06,3.06,0,0,0,2,.84c.78,0,1.17-.33,1.17-.8,0-1.17-3.59-.33-3.59-2.61,0-1,.83-1.81,2.34-1.81a3.38,3.38,0,0,1,2.31.84l-.54.91a2.42,2.42,0,0,0-1.76-.72c-.68,0-1.11.31-1.11.73,0,1.06,3.6.27,3.6,2.64,0,1-.88,1.84-2.48,1.84A3.58,3.58,0,0,1,49.58,155.81Z"></path><path class="cls-3" d="M219.41,325.65A129.92,129.92,0,1,1,349.32,195.73,129.92,129.92,0,0,1,219.41,325.65Zm0-256.47A126.55,126.55,0,1,0,346,195.74h0A126.7,126.7,0,0,0,219.41,69.18Z"></path><circle class="cls-4" cx="317.64" cy="265.97" r="37.26" transform="translate(4.22 536.9) rotate(-80.78)"></circle><path class="cls-5" d="M332.8,260.39a.6.6,0,0,1-.12-1.18l7.57-1.65a.59.59,0,0,1,.71.47.59.59,0,0,1-.45.7l-7.58,1.65Z"></path><path class="cls-5" d="M331.82,255.87a.6.6,0,0,1-.41-1l6.6-6.17a.6.6,0,0,1,.85,0,.61.61,0,0,1,0,.85l-6.6,6.16A.58.58,0,0,1,331.82,255.87Z"></path><path class="cls-5" d="M342.34,267.8a.65.65,0,0,1-.19,0l-8.56-2.88a.59.59,0,0,1-.37-.76.58.58,0,0,1,.75-.37h0l8.56,2.88a.59.59,0,0,1,.38.76.6.6,0,0,1-.57.41Z"></path><path class="cls-5" d="M329.54,272.24l-4.86-22.43a1.43,1.43,0,0,0-1.71-1.09,1.31,1.31,0,0,0-.64.33,44.56,44.56,0,0,1-17,9.38l-5.82,1.3a2.42,2.42,0,0,0-1.9,2.6l0,.41-1.58.34a2,2,0,0,0-1.48,2.3l1.12,5.15A1.93,1.93,0,0,0,298,272l1.58-.34.14.39a2.41,2.41,0,0,0,1.8,1.58l.2,0,6.82,10.85a1.42,1.42,0,0,0,1.49.63l4.22-.92a1.41,1.41,0,0,0,1.08-1.68,1.49,1.49,0,0,0-.19-.45l-6.16-9.8.74-.08a44.59,44.59,0,0,1,18,1.68,1.43,1.43,0,0,0,1.39-.31A1.42,1.42,0,0,0,329.54,272.24Zm-31.71-1.13-.21,0a1,1,0,0,1-1-.79l-1.12-5.15a1,1,0,0,1,.78-1.21l1.61-.35,1.55,7.13Zm4.18,1.66-.27,0a1.51,1.51,0,0,1-1.17-1.15l-2-9.17a1.51,1.51,0,0,1,1.15-1.79l5.37-1.17,2.63,12.11-.45.1-5,1.08Zm12.51,10-.18.46-.25.07-4.54,1-.2-.3-6.57-10.44,5.23-1.14Zm14-9.89a.54.54,0,0,1-.35.13l-.15,0a45.37,45.37,0,0,0-18.92-1.65l-.42.05L306,259.21l.41-.13a45.5,45.5,0,0,0,16.54-9.34.49.49,0,0,1,.5-.11l.25.09.08.29,4.92,22.69Z"></path><path class="cls-5" d="M302.69,270.68a.3.3,0,0,1-.29-.23l-1.57-7.15a.29.29,0,0,1,.22-.36.29.29,0,0,1,.36.22h0l1.58,7.15a.3.3,0,0,1-.23.35h-.07Z"></path><path class="cls-5" d="M305.09,270.08a.3.3,0,0,1-.29-.23l-1.57-7.15a.29.29,0,0,1,.22-.36.3.3,0,0,1,.36.22h0l1.57,7.15a.3.3,0,0,1-.22.36h-.07Z"></path><path class="cls-1" d="M198.8,369.23a4.14,4.14,0,0,1,4-4.25h.28a3.86,3.86,0,0,1,3.31,1.71l-1.18.67a2.62,2.62,0,0,0-2.13-1.1,3,3,0,0,0,0,5.95,3.07,3.07,0,0,0,1.95-.74v-1.28H202.6v-1.27h3.9V372a4.47,4.47,0,0,1-3.39,1.49,4.16,4.16,0,0,1-4.31-4A1.22,1.22,0,0,1,198.8,369.23Z"></path><path class="cls-1" d="M208,373.33v-5.95h1.29v.87a2.54,2.54,0,0,1,1.93-1v1.28a2.69,2.69,0,0,0-.4,0,2.05,2.05,0,0,0-1.53.79v4.05Z"></path><path class="cls-1" d="M211.87,370.35a3.07,3.07,0,1,1,3.06,3.13,3,3,0,0,1-3.06-2.9Zm4.78,0a1.73,1.73,0,1,0-1.72,2,1.78,1.78,0,0,0,1.73-1.83.76.76,0,0,0,0-.15Z"></path><path class="cls-1" d="M224.49,373.33,223.11,369l-1.38,4.36h-1.35l-1.85-5.95h1.34l1.26,4.32,1.42-4.32h1.13l1.42,4.32,1.25-4.32h1.35l-1.85,5.95Z"></path><path class="cls-1" d="M228.86,372v-3.44h-1v-1.13h1v-1.63h1.29v1.63h1.21v1.13h-1.21v3.12c0,.41.2.7.57.7a.83.83,0,0,0,.58-.21l.31,1a1.75,1.75,0,0,1-1.22.38,1.37,1.37,0,0,1-1.53-1.2A.92.92,0,0,1,228.86,372Z"></path><path class="cls-1" d="M236.56,373.33v-3.75c0-.92-.48-1.2-1.21-1.2a2,2,0,0,0-1.53.8v4.15h-1.29v-8.22h1.29v3.08a2.88,2.88,0,0,1,2.11-1,1.7,1.7,0,0,1,1.92,1.45,1.62,1.62,0,0,1,0,.44v4.21Z"></path><circle class="cls-1" cx="218.49" cy="319.87" r="37.26"></circle><path class="cls-5" d="M207.77,338.25a.52.52,0,0,0,.52-.52h0V324.54a1.41,1.41,0,0,0-1.41-1.41h-4.43a1.41,1.41,0,0,0-1.41,1.41v13.19a.52.52,0,0,0,.52.52h6.21Zm-5.69-13.71a.37.37,0,0,1,.37-.37h4.43a.37.37,0,0,1,.37.37v12.67h-5.17Z"></path><path class="cls-5" d="M211.84,319.65a1.41,1.41,0,0,0-1.41,1.41v16.67a.52.52,0,0,0,.52.52h6.22a.51.51,0,0,0,.51-.52h0V321.06a1.41,1.41,0,0,0-1.4-1.41Zm4.81,1.41v16.15h-5.18V321.06a.37.37,0,0,1,.37-.37h4.44a.38.38,0,0,1,.37.37Z"></path><path class="cls-5" d="M227.08,337.73V317.58a1.41,1.41,0,0,0-1.41-1.41h-4.44a1.41,1.41,0,0,0-1.41,1.41v20.15a.52.52,0,0,0,.52.52h6.22a.52.52,0,0,0,.52-.52Zm-1-.52h-5.18V317.58a.37.37,0,0,1,.37-.37h4.44a.37.37,0,0,1,.37.37v19.63Z"></path><path class="cls-5" d="M229.74,338.25H236a.52.52,0,0,0,.52-.52h0V314.1a1.41,1.41,0,0,0-1.41-1.41h-4.44a1.41,1.41,0,0,0-1.4,1.41v23.63a.51.51,0,0,0,.51.52Zm.52-24.15a.36.36,0,0,1,.36-.37h4.44a.36.36,0,0,1,.37.37v23.11h-5.17Z"></path><path class="cls-5" d="M235.21,299.9a1.12,1.12,0,0,0-.9-.49l-6-.21a1.15,1.15,0,0,0-1,1.8l.62.9a54.9,54.9,0,0,1-21.15,6.71h0c-1.47.1-4.68.3-5.76.3a.55.55,0,0,0-.55.55h0v3.95a.55.55,0,0,0,.55.55h0c9.13,0,18.94-3,23.72-4.84l.07,0a50.65,50.65,0,0,0,6-3l.56.8a1.14,1.14,0,0,0,1.6.29,1.09,1.09,0,0,0,.43-.58l1.89-5.66A1.16,1.16,0,0,0,235.21,299.9Zm-2.78,6.33a0,0,0,0,1-.06,0l0,0-.85-1.22a.55.55,0,0,0-.74-.16,50.27,50.27,0,0,1-6.38,3.24l0,0c-4.61,1.74-14,4.66-22.71,4.74V310c1,0,2.06-.05,3.1-.12,0,0,2.69-.23,2.74-.25a55.57,55.57,0,0,0,21.6-7.1.55.55,0,0,0,.18-.76v0s-.95-1.36-1-1.39a0,0,0,0,1,0-.06h0l6,.21a0,0,0,0,1,0,.05h0l-1.88,5.66Z"></path><circle class="cls-4" cx="104.14" cy="265.97" r="37.26"></circle><path class="cls-5" d="M103.56,239.71a.79.79,0,0,0-.79.8h0v4.25a.79.79,0,0,0,.79.8.8.8,0,0,0,.8-.8v-4.25a.8.8,0,0,0-.8-.8Z"></path><path class="cls-5" d="M93.62,247.22l-2.13-3.69a.8.8,0,0,0-1.38.79h0L92.24,248a.8.8,0,0,0,1.09.29.79.79,0,0,0,.29-1.08Z"></path><path class="cls-5" d="M85.54,254.71l-3.68-2.13a.8.8,0,0,0-.81,1.38h0l3.69,2.13a.79.79,0,0,0,1.08-.29.8.8,0,0,0-.29-1.09Z"></path><path class="cls-5" d="M82.29,265.24H78a.79.79,0,0,0-.8.79.8.8,0,0,0,.8.8h4.25a.8.8,0,1,0,0-1.59Z"></path><path class="cls-5" d="M85.83,276.27a.79.79,0,0,0-1.08-.29l-3.69,2.13a.79.79,0,1,0,.78,1.38h0l3.68-2.12a.8.8,0,0,0,.29-1.09Z"></path><path class="cls-5" d="M93.33,283.76a.81.81,0,0,0-1.09.3l-2.13,3.68a.8.8,0,1,0,1.38.79l2.13-3.68A.8.8,0,0,0,93.33,283.76Z"></path><path class="cls-5" d="M103.56,286.51a.79.79,0,0,0-.79.79h0v4.26a.79.79,0,0,0,.79.79.79.79,0,0,0,.8-.79V287.3a.79.79,0,0,0-.8-.79Z"></path><path class="cls-5" d="M117,287.74l-2.12-3.68a.8.8,0,0,0-1.38.79l2.13,3.68a.79.79,0,1,0,1.37-.79Z"></path><path class="cls-5" d="M126.06,278.11,122.38,276a.8.8,0,0,0-1.09.29.79.79,0,0,0,.29,1.08h0l3.69,2.12a.79.79,0,1,0,.79-1.37Z"></path><path class="cls-5" d="M129.09,265.24h-4.26a.79.79,0,0,0-.79.79.79.79,0,0,0,.79.8h4.26a.79.79,0,0,0,.79-.8.79.79,0,0,0-.79-.79Z"></path><path class="cls-5" d="M126.36,252.87a.8.8,0,0,0-1.09-.29l-3.68,2.13a.79.79,0,0,0-.31,1.08.8.8,0,0,0,1.09.31h0l3.68-2.13a.81.81,0,0,0,.3-1.09Z"></path><path class="cls-5" d="M116.72,243.24a.79.79,0,0,0-1.08.29l-2.13,3.69a.8.8,0,0,0,1.37.81v0l2.12-3.68A.8.8,0,0,0,116.72,243.24Z"></path><path class="cls-5" d="M103.56,250.35a15.46,15.46,0,0,0-8.92,2.8,2.55,2.55,0,0,0-.43.3l-.35.26a25,25,0,0,0-2.48,2.46l-.06.06a15.68,15.68,0,1,0,12.24-5.88Zm0,30.16A14.38,14.38,0,1,1,118,266.13h0a14.38,14.38,0,0,1-14.39,14.38Z"></path><path class="cls-5" d="M97.16,263.11a3,3,0,1,1,3.07,3h0a2.91,2.91,0,0,1-3-2.78Zm4.65,0a1.63,1.63,0,1,0-1.63,1.8,1.66,1.66,0,0,0,1.64-1.68S101.81,263.15,101.81,263.11ZM99,272.45l7.8-12.21H108l-7.82,12.21Zm4.72-2.78a3,3,0,1,1,3.06,3h0a2.9,2.9,0,0,1-3-2.77v-.23Zm4.65,0a1.63,1.63,0,1,0-3.24-.4,2.67,2.67,0,0,0,0,.4,1.63,1.63,0,0,0,3.24.33A.91.91,0,0,0,108.38,269.67Z"></path><circle class="cls-6" cx="99.05" cy="146.99" r="37.26"></circle><path class="cls-5" d="M129.4,151h0c-.09-2.72-.14-4.51-1.39-5.65a8.3,8.3,0,0,0-3.93-1.6,4.37,4.37,0,0,1-.52-.12c-.53-.25-1.31-.58-2.26-1a2.69,2.69,0,0,0-.59-1.28c0-.15,0-.29,0-.43a7.24,7.24,0,0,0,1.56-2.27c.08-.21.21-.63.28-.87a2.21,2.21,0,0,0,.88-1.36,2.32,2.32,0,0,0,0-1.54.58.58,0,0,0-.19-.19v0h0c0-.11,0-.24,0-.4a5.25,5.25,0,0,1,0-.56c0-.36.07-.58.12-1.12l0-.21a3,3,0,0,0,0-1,.41.41,0,0,0,0-.22l0-.08a.48.48,0,0,0,0-.12l0-.11a.31.31,0,0,0,0-.19,1.17,1.17,0,0,0-.16-.36.42.42,0,0,0,0-.22.94.94,0,0,0-.12-.18c.07-.18,0-.39-.32-.67a.31.31,0,0,0,0-.25,1.43,1.43,0,0,0-.79-.58,1.64,1.64,0,0,1-.22-.14l-.09-.06a.31.31,0,0,0-.15-.23.92.92,0,0,0-.28-.14c-.07-.16-.29-.26-.65-.3h-.11a.44.44,0,0,0-.08-.11.35.35,0,0,0-.19-.1.35.35,0,0,0-.28-.24,1.15,1.15,0,0,0-.55.07l-.1,0a.33.33,0,0,0-.07-.13.51.51,0,0,0-.5-.1.3.3,0,0,0-.16-.08,1,1,0,0,0-.64.11.44.44,0,0,0-.25-.08.41.41,0,0,0-.16,0l-.11,0a2.15,2.15,0,0,0-.36-.11.36.36,0,0,0-.35.16h0l-.15,0a.92.92,0,0,0-.63-.11.3.3,0,0,0-.16.08.51.51,0,0,0-.5.1.33.33,0,0,0-.07.13l-.11,0a1.22,1.22,0,0,0-.54-.06.35.35,0,0,0-.28.24.35.35,0,0,0-.19.1.44.44,0,0,0-.08.11h-.11c-.35,0-.57.13-.64.3l-.29.13a.36.36,0,0,0-.15.23l-.09.07a1,1,0,0,1-.22.14,1.43,1.43,0,0,0-.79.58.36.36,0,0,0,0,.25c-.19.19-.4.44-.32.67a.71.71,0,0,0-.12.18.41.41,0,0,0,0,.22,1.46,1.46,0,0,0-.16.36.31.31,0,0,0,0,.19l0,.11a.48.48,0,0,0,0,.12l0,.08a.41.41,0,0,0,0,.22,3,3,0,0,0,0,1l0,.23c0,.53.08.75.12,1.1a5.63,5.63,0,0,1,0,.58c0,.14,0,.25,0,.37h0v0a.45.45,0,0,0-.22.21,2.39,2.39,0,0,0,0,1.54,2.22,2.22,0,0,0,.89,1.36c.09.31.2.68.28.87a7.4,7.4,0,0,0,1.56,2.28c0,.13,0,.27,0,.41a3.12,3.12,0,0,0-.61,1.3h0c-.4.16-1.46.59-2.23,1l-.54.12a8.33,8.33,0,0,0-3.91,1.6,3.24,3.24,0,0,0-.52.64v0h0a3.73,3.73,0,0,0-.26-.3c0-.26-.24-1.1-.39-1.57a4.05,4.05,0,0,0-1.32-1.74l-.09-.08a2.76,2.76,0,0,0-.85-.59,3.51,3.51,0,0,0-1.32-.32h0a1.66,1.66,0,0,0-.35-.35,6.85,6.85,0,0,0-4.63-.74A7,7,0,0,0,93,143a9.43,9.43,0,0,0-1.36,2.66h0a8.65,8.65,0,0,0-3.78-1.5,5.23,5.23,0,0,1-.54-.12c-.81-.38-2-.84-2.26-1a2.69,2.69,0,0,0-.59-1.28c0-.15,0-.31,0-.46l.15-.16h0A7.22,7.22,0,0,0,86,139.1a7.83,7.83,0,0,0,.27-.86,2.21,2.21,0,0,0,.89-1.36,2.57,2.57,0,0,0,0-1.48h0v0a1.47,1.47,0,0,0,.27-.49l.06-.14a4,4,0,0,0,.09-3.53c-.38-.84-1-1.95-2.28-2v0h0a2.2,2.2,0,0,0-.79-1l-.4-.3a4,4,0,0,0-.76-.53,4.34,4.34,0,0,0-1.5-.4,9.2,9.2,0,0,0-2,.09l-.26,0-.13,0a7.66,7.66,0,0,0-1.64.38A6.09,6.09,0,0,0,75,129.6a6.23,6.23,0,0,0-.89,2.21,6.05,6.05,0,0,0-.19,1.53,4.26,4.26,0,0,0,.68,2h0l0,0a2.39,2.39,0,0,0,0,1.54,2.25,2.25,0,0,0,.89,1.36,9,9,0,0,0,.28.87,7.23,7.23,0,0,0,1.64,2.35l0,.3a3.24,3.24,0,0,0-.61,1.3h0c-.4.16-1.46.59-2.23.95a5.23,5.23,0,0,1-.54.12,8.24,8.24,0,0,0-3.91,1.61c-1.25,1.13-1.31,2.92-1.39,5.65,0,.64,0,1.3-.07,2,0,.91,2.09,2.2,3.89,2.36h0a15,15,0,0,0,6.16,2l0,0H79l1.12.12-.15,0,.52,0h.41l.92,0-.16,0,1.17-.13h.25l0,0a15,15,0,0,0,6.17-2h0a5.5,5.5,0,0,0,1-.2,3.13,3.13,0,0,0-1,2.44h0c-.86.32-1.35.64-1.52,1-.87,1.89-1,3.82-1.35,7.32l0,.37a.93.93,0,0,0,.28.67,6.22,6.22,0,0,0,3.68,1.69h0a14,14,0,0,0,4.59,1.73v0H95l.16,0,.13,0h.06l.29.05h.07l.52.07h.07l.16,0,.44.05h0c.34,0,.72,0,1.07.06h.75c.55,0,1.12,0,1.73-.08h0l.31,0,.13,0h0l.59-.08.2,0,.27,0,.12,0h.12l.15,0h.07v0a14,14,0,0,0,4.59-1.73,6.22,6.22,0,0,0,3.68-1.69,1,1,0,0,0,.28-.67l0-.36c-.31-3.51-.48-5.44-1.35-7.33-.27-.59-1.23-1-2.26-1.26h0a5.7,5.7,0,0,0,.14-2.66,5.73,5.73,0,0,0,1.29.29,14.79,14.79,0,0,0,6.16,2l0,0h.34l1.09.13-.15-.05h.93c.61,0,1.23,0,2-.1h0l.19,0h0s.06,0,.05,0a14.88,14.88,0,0,0,6.18-2h0c1.8-.16,3.94-1.44,3.89-2.35C129.44,152.33,129.42,151.67,129.4,151Zm-21.28,3.56c-.11,0-.21-.07-.32-.1l-.5-.18a4.23,4.23,0,0,0-.23-.41,1.51,1.51,0,0,0-.1-.17,5.45,5.45,0,0,0-.39-.5,2.47,2.47,0,0,1-.3-.42.34.34,0,0,1,0-.1.09.09,0,0,1,0-.05.94.94,0,0,1,0-.16s0,0,0-.06l0-.11.12-.39a5.47,5.47,0,0,0,.28-1.26,4.63,4.63,0,0,0-.14-1c0-.11-.07-.33-.07-.37a4.39,4.39,0,0,0,.07-.72.89.89,0,0,0,0-.23,3.7,3.7,0,0,0,0-.47c0-.08,0-.17,0-.25s0-.27-.09-.4l-.1-.27c0-.1-.07-.21-.12-.32a2.2,2.2,0,0,1,.15-.26,1.4,1.4,0,0,1,.1-.16,1.89,1.89,0,0,1,.32-.37,7.73,7.73,0,0,1,3.59-1.44,4.2,4.2,0,0,0,.7-.17l.45-.21.1,0,.45-.2.08,0,.81-.34h0a.14.14,0,0,1,0,.07,2.94,2.94,0,0,0,.12.59l0,.09a4.87,4.87,0,0,0,.21.53c.33.72,1.16,2.12,1.2,2.18a.34.34,0,0,0,.31.16h0a.34.34,0,0,0,.29-.19l.12-.25,0,0,.13-.26,0-.11a2.6,2.6,0,0,0,.13-.24l.07-.13,0-.08h0a2.82,2.82,0,0,0,.24.36l0,0a2.79,2.79,0,0,0,.28.32l0,0v0c0,.09,0,.19,0,.29s0,.19-.1.34c-.16.57-.49,1.75-.79,3.27-.06.3-.11.6-.16.91,0,.11,0,.23,0,.34s-.06.4-.08.61,0,.24-.05.37,0,.38-.07.56,0,.26,0,.39,0,.34,0,.51l0,.38c0,.16,0,.31,0,.45l0,.35c0,.14,0,.27,0,.39l0,.29c0,.11,0,.22,0,.32s0,.15,0,.22v.14l-.49-.08c-.18,0-.36-.05-.53-.09l-.52-.11-.47-.11-.46-.13-.41-.12c-.15,0-.27-.09-.41-.14l-.36-.12-.33-.14-.32-.13-.26-.13-.28-.13-.17-.09-.26-.14-.31-.19a.43.43,0,0,0-.23-.09A4.43,4.43,0,0,1,108.12,154.59Zm-1.44,3.69.24.07.06,0,0,0v0l.27.08h0l.41.13.1,0,.31.12.08,0a2.53,2.53,0,0,1,.33.16l.05,0,.21.13,0,0a.8.8,0,0,1,.15.17c.1.22.19.45.27.67a10.81,10.81,0,0,1,.41,1.45c.11.52.2,1.07.28,1.69.11.93.21,2,.32,3.29l0,.34a.35.35,0,0,1-.12.19,5.54,5.54,0,0,1-3.28,1.46.5.5,0,0,0-.24.09l-.22.14-.13.07-.17.1-.17.08-.21.11-.21.1-.25.11-.24.1-.3.12a2.15,2.15,0,0,1-.27.1l-.34.12-.31.1-.37.11-.36.1-.25.06.06-.14c.19-.43.4-.87.64-1.31l.1-.18c.25-.46.52-.93.81-1.42a22.29,22.29,0,0,0,1.41-2.64,15.12,15.12,0,0,0,1-3.49.31.31,0,0,0,0-.21l0,0,0,0,.08,0-.08,0h0l.2-.1.06,0a.31.31,0,0,0,.12-.16.36.36,0,0,0-.2-.42,4.81,4.81,0,0,1-1.36-1.1l-.37-.43h0c-.15-.18-.3-.36-.46-.52h0l.11,0h0l.43.16c.18.07.47.14.83.24ZM87,166.79h0l0-.37c.11-1.28.21-2.35.32-3.28.08-.62.17-1.18.28-1.69q.08-.39.18-.75a8.35,8.35,0,0,1,.51-1.37c.17-.37,1.26-.74,2.13-1l.76-.21a8.38,8.38,0,0,0,.83-.23l.55-.21h0l-.2.21-.26.3,0,0a6.1,6.1,0,0,1-1.72,1.52.36.36,0,0,0-.2.42.38.38,0,0,0,.12.16l.06,0,.19.1h0l-.08,0,.08,0,0,0,0,0a.3.3,0,0,0,0,.21,15.12,15.12,0,0,0,1,3.49A22.29,22.29,0,0,0,92.84,167c.29.49.56,1,.81,1.43l.1.16c.23.45.45.89.64,1.32a.78.78,0,0,1,0,.14l-.25-.07-.35-.09-.38-.12-.3-.09-.37-.13-.23-.09a3.84,3.84,0,0,1-.36-.14l-.17-.07-.35-.16-.11,0-.33-.17,0,0-.3-.16h0l-.23-.14a.6.6,0,0,0-.23-.1A5.47,5.47,0,0,1,87.13,167,.66.66,0,0,1,87,166.79Zm9.93,3.66-.42,0h-.16l-.22,0-.27,0-.27,0-.16,0h0l-.14,0h0c-.06-.16-.14-.33-.21-.49l-.17-.39c-.09-.2-.19-.39-.28-.58l-.17-.33c-.13-.24-.26-.48-.4-.72l-.11-.19-.52-.91a20.34,20.34,0,0,1-1.35-2.52,15.4,15.4,0,0,1-.9-3l1-.27.58,0a4.13,4.13,0,0,0,1.63-.61l.15-.08.23.2.1.08.16.13h0l0,.05c.09.35.19.72.3,1.12s.26.91.39,1.42.21.74.32,1.11c0,.11.07.22.1.33l.24.78c.05.13.09.26.14.38s.15.46.23.69l.18.47c.06.18.13.36.19.53l.19.5c.06.14.12.29.17.43l.2.5.13.31.22.53.07.16.21.49,0,0,0,0,0,.08h0v0h-.35l-.92-.05Zm5.64-13a3.36,3.36,0,0,0-.15-1.18l.12.16a.85.85,0,0,0,.14.19l.26.31,0,.05v0l.07,0,0,0,.2.19.12.11.47.4a7.41,7.41,0,0,1,.86.91A8.94,8.94,0,0,0,106,160c-.23,0-.5.08-.75.1h0l-.15,0v0h-.44a3.67,3.67,0,0,1-1.35-.53l0,0-.38-.2a.36.36,0,0,0-.39.09,2.92,2.92,0,0,1-.77.63.48.48,0,0,0-.16.08A8.48,8.48,0,0,0,102.58,157.47Zm-8.83.06.46-.44v.26l.27-.54.11-.11h0l.12-.13.18-.2a3.41,3.41,0,0,0-.12,1.1,9,9,0,0,0,1,2.71.55.55,0,0,0-.15-.08,2.81,2.81,0,0,1-.78-.63.35.35,0,0,0-.39-.09l-.38.2,0,0a3.73,3.73,0,0,1-1.34.53h-.28l-.2,0h-.07v0l-.08,0c-.25,0-.51-.06-.74-.1a9.4,9.4,0,0,0,1.31-1.29,3.17,3.17,0,0,1,.3-.34c.25-.28.54-.55.84-.84ZM95,155.28a2.17,2.17,0,0,0,0-.62v-.07l.15.22a3.44,3.44,0,0,1,0,.46l-.1.06v-.06l0,0v0Zm5.71,8.65c0,.11-.07.22-.11.33s-.13.43-.2.64l-.12.38c-.07.19-.13.38-.19.57l-.14.38c-.06.18-.13.36-.19.53l-.14.36c-.06.17-.12.34-.19.5s-.08.22-.13.33l-.18.46-.12.28c-.06.15-.11.29-.17.43s-.07.16-.1.23a.77.77,0,0,1-.07.16l-.06-.16c0-.08-.07-.16-.11-.25l-.16-.39c0-.1-.09-.21-.13-.33s-.11-.27-.17-.4l-.15-.39-.16-.43c-.06-.14-.11-.28-.16-.43s-.11-.3-.17-.46-.1-.29-.16-.44-.11-.35-.17-.52-.1-.28-.14-.42-.13-.4-.19-.6-.07-.25-.11-.37c-.1-.32-.19-.65-.27-1-.14-.52-.27-1-.4-1.46h0c0-.09,0-.16-.07-.24.08.1.17.2.26.33h0c.13.16.26.35.41.56l.1.15c.15.22.32.46.49.73l.1.14a8.14,8.14,0,0,1,1,2.91c0,.07,0,.14,0,.19a.34.34,0,0,0,.67,0c0-.05,0-.12,0-.2s0-.17,0-.28v-.06l0-.12a.61.61,0,0,1,0-.13.36.36,0,0,1,0-.1l.06-.21a.19.19,0,0,0,0-.07c0-.09.07-.19.11-.31l0-.1c0-.11.08-.22.14-.35l.07-.16.16-.37.1-.2.19-.4.13-.19.17-.26a.83.83,0,0,0,.08-.12l.28-.41,0,0,.3-.42.08-.09.32-.43h0l-.06.23c-.13.46-.27.94-.4,1.47l-.27,1Zm-.18-3.17c-.28.56-.54,1.08-.74,1.46l-.15.31-.05.09,0,.09h0l-.07.14,0,0,0,0h0c-.11.21-.19.4-.28.6s-.11.22-.15.32c-.13.3-.25.58-.34.84q-.14-.39-.33-.84l-.15-.32-.28-.6h0l-.09-.13h0l0-.07h0a1.33,1.33,0,0,0-.06-.12v0l-.18-.35-.74-1.46a12.55,12.55,0,0,1-1.36-3.33,2.76,2.76,0,0,1,.07-.76,3.39,3.39,0,0,1,.15-.45l.08.43,0-.81a2.09,2.09,0,0,0,0-.43v0h0v0l0,0v0l.06,0a5.76,5.76,0,0,0,.71.46,4.28,4.28,0,0,0,4.08,0,7,7,0,0,0,.73-.47.1.1,0,0,0,0,0v0l0,0h0v.08a1.68,1.68,0,0,0,0,.45l.06.79.07-.41a2.68,2.68,0,0,1,.21,1.19,12.23,12.23,0,0,1-1.36,3.33Zm-5.42-6.1v.05l0-.08,0,0h0Zm5.86-9.94h0l.06.08.09.12.11.11a.73.73,0,0,0,.08.09l.14.12.08.06.28.19a3,3,0,0,1,1,1.1,8.5,8.5,0,0,1,.31,1.5,8.24,8.24,0,0,0,.38,1.48.36.36,0,0,0,.31.23.32.32,0,0,0,.32-.19,1.83,1.83,0,0,1,.18-.3,2.54,2.54,0,0,1-.12.78,2.36,2.36,0,0,1-.45.91.35.35,0,0,0-.37.24s-.19.71-.3,1a6.31,6.31,0,0,1-1.31,1.95v-.1l0,.12a5,5,0,0,1-1.33,1,3.58,3.58,0,0,1-3.45,0h0a5.75,5.75,0,0,1-.83-.56l-.18-.15a6.14,6.14,0,0,1-.67-.68l0,0a6.85,6.85,0,0,1-.5-.7l-.11-.19a5.58,5.58,0,0,1-.35-.69c-.08-.21-.16-.41-.23-.61s0-.27.07-.4,0-.13,0-.2c.07-.25.16-.49.25-.73a3.36,3.36,0,0,0,.7-1.18,7.79,7.79,0,0,0,.44-1.57l.06-.28c.27-1.27.77-1.33,1.46-1.42l.43-.07a5.92,5.92,0,0,0,1-.28,6.27,6.27,0,0,0,.74-.35,2.58,2.58,0,0,1,1.38-.4.82.82,0,0,0,.35,0Zm-.29,25.69h0l-.27,0h0c-.35,0-.74.05-1.22.06H99c0-.06.06-.14.09-.21l.1-.22q.08-.19.18-.42l.13-.32c.06-.14.13-.3.19-.46s.11-.26.16-.39l.2-.51.18-.45.21-.56c0-.16.11-.32.17-.48l.22-.63c0-.15.11-.31.16-.47s.15-.48.23-.72.09-.27.13-.41c.11-.38.22-.77.32-1.15s.27-1,.4-1.45.22-.77.31-1.14l.2-.15.07-.06.23-.2.16.08a4.09,4.09,0,0,0,1.62.61,4.6,4.6,0,0,0,.46,0h.12l1,.27a15.37,15.37,0,0,1-.89,3,22.32,22.32,0,0,1-1.37,2.55l-.52.89-.12.22-.37.68c-.07.12-.13.25-.19.37l-.27.53-.17.42c-.07.16-.14.31-.2.47l-.11,0h0l-.8.12-.27,0Zm6-12.83-.4-.1h0l-.74-.21-.53-.2c-.59-.21-1.19-.42-1.54-.57-.09-.09-.17-.19-.26-.3l-.09-.12h0l-.13.08h0l.13-.08a2,2,0,0,0-.43-.49,3.55,3.55,0,0,0-.47-.32,3.08,3.08,0,0,1,0-.61l.15-.15h0a6.86,6.86,0,0,0,1.31-2c.09-.21.21-.62.28-.84a2.21,2.21,0,0,0,.86-1.34,2.27,2.27,0,0,0,0-1.52.52.52,0,0,0-.34-.26.63.63,0,0,0-.57.18,3.61,3.61,0,0,1-.15-.65,8.17,8.17,0,0,0-.36-1.7,3.75,3.75,0,0,0-1.24-1.44,1.77,1.77,0,0,1-.59-.5.78.78,0,0,0,.26-.36,5.81,5.81,0,0,0,.11-1.5,2.14,2.14,0,0,0-.08-.44,3.52,3.52,0,0,1,.78.24,2.18,2.18,0,0,1,.64.45l.15.14a3.24,3.24,0,0,1,1.08,1.4c.15.45.34,1.33.4,1.6a.29.29,0,0,0,.11.19,2.75,2.75,0,0,1,.48.64h0a3.51,3.51,0,0,1,.22.48,3.88,3.88,0,0,1,.15,2,1.91,1.91,0,0,0,.08.63,5.72,5.72,0,0,1,.12.83,4.92,4.92,0,0,1-.26,1.07,4.26,4.26,0,0,0-.24,1.07,1.41,1.41,0,0,0,.46.84,5.84,5.84,0,0,1,.42.56h0a2.56,2.56,0,0,1,.27.55h0a2.59,2.59,0,0,1,.09.4h0a5.26,5.26,0,0,1-.13,2.4Zm5.56-20.31a.35.35,0,0,0-.11,0,.16.16,0,0,0-.09,0h0a2,2,0,0,1-.49-.93,3.41,3.41,0,0,1-.1-.46s0-.07,0-.1a2.26,2.26,0,0,1,0-.26h0a.36.36,0,0,1,0,.09l.1.25a.9.9,0,0,1,.09.32c.06.35.23.56.48.56h0a.37.37,0,0,0,.34-.35c0-.25,0-.53,0-.79a4.51,4.51,0,0,1,0-.52,2.65,2.65,0,0,1,.2-.49,2.18,2.18,0,0,0,.22-.55,4.76,4.76,0,0,0,0-1.13,2.36,2.36,0,0,1,0-.25,2.57,2.57,0,0,1,.36-1.32c.36-.53.63-.64,1.13-.47a9.05,9.05,0,0,0,4.95.12l.26-.06c.78-.16,1-.19,1.45.41a2.57,2.57,0,0,1,.36,1.32,2.36,2.36,0,0,1,0,.25,4.76,4.76,0,0,0,0,1.13,2.18,2.18,0,0,0,.22.55,2.65,2.65,0,0,1,.2.49,4.56,4.56,0,0,1,0,.52c0,.24,0,.54,0,.78a.37.37,0,0,0,.34.36h0c.23,0,.4-.2.46-.57a.9.9,0,0,1,.09-.32c0-.06.06-.14.1-.24h0l0-.07v0a1.77,1.77,0,0,1,0,.23.34.34,0,0,1,0,.1,3.12,3.12,0,0,1-.09.44,2.48,2.48,0,0,1-.47.93.37.37,0,0,0-.37.25l0,.14c0,.16-.11.4-.18.6l-.08.25c-.11.24-.23.47-.36.7l-.12.2a6.08,6.08,0,0,1-.47.66l-.07.09a5.66,5.66,0,0,1-.42.43v0l-.13.13h0a1.59,1.59,0,0,0-.13.13l-.16.12a5,5,0,0,1-.86.59,3.67,3.67,0,0,1-3.52,0,5.63,5.63,0,0,1-.86-.58l-.16-.13a6.51,6.51,0,0,1-.69-.7l-.07-.1a8,8,0,0,1-.48-.66,2,2,0,0,1-.11-.2,4.63,4.63,0,0,1-.36-.7c-.1-.24-.29-.93-.31-1a.29.29,0,0,0-.12-.18Zm-.62-5.8.06-.08a.34.34,0,0,0,.19-.29.68.68,0,0,0,0-.14.38.38,0,0,0,0-.21.25.25,0,0,0,.05-.15.22.22,0,0,0,0-.14l0,0a.33.33,0,0,0,.15-.33l.18-.15,0,0a.33.33,0,0,0,.09-.42l.08-.05a.44.44,0,0,0,.29-.41v0a1.17,1.17,0,0,0,.3-.19l.12-.07a.69.69,0,0,1,.28-.05h0a.47.47,0,0,0,.2-.06.4.4,0,0,0,.13-.16s0,0,0-.05a.37.37,0,0,0,.23-.21.9.9,0,0,0,.28,0,.38.38,0,0,0,.19-.16,1.13,1.13,0,0,0,.26,0,.58.58,0,0,0,.21-.07.34.34,0,0,0,.09-.08.7.7,0,0,0,.25,0,.36.36,0,0,0,.17-.07.41.41,0,0,0,.19,0,.34.34,0,0,0,.12-.06.48.48,0,0,0,.24.07.36.36,0,0,0,.29-.12h0a.56.56,0,0,0,.34,0,.44.44,0,0,0,.25,0,.48.48,0,0,0,.26-.12,1.19,1.19,0,0,0,.26.11.39.39,0,0,0,.24,0,.43.43,0,0,0,.16,0,.52.52,0,0,0,.21,0,.34.34,0,0,0,.29.11.55.55,0,0,0,.24-.07.24.24,0,0,0,.11.06.43.43,0,0,0,.19,0,.36.36,0,0,0,.18.07.65.65,0,0,0,.24,0,.39.39,0,0,0,.1.08.8.8,0,0,0,.46.07.38.38,0,0,0,.19.16.9.9,0,0,0,.28,0,.37.37,0,0,0,.23.21.43.43,0,0,1,0,.05.36.36,0,0,0,.33.22h0a.7.7,0,0,1,.29,0l.12.08a1.17,1.17,0,0,0,.3.19v0c0,.24.18.34.32.42l0,0a.33.33,0,0,0,.1.43l0,0,.18.14a.28.28,0,0,0,0,.2.28.28,0,0,0,.11.13l0,0a.22.22,0,0,0,0,.14.65.65,0,0,1,.05.36.78.78,0,0,0,0,.14.33.33,0,0,0,.17.28l.11.12a2.43,2.43,0,0,1,0,.85l0,.33c0,.45-.07.66-.11,1s0,.44,0,.66a4.61,4.61,0,0,1,0,.53l0,0a2.39,2.39,0,0,0-.26-.64,1.69,1.69,0,0,1-.15-.37,3.94,3.94,0,0,1,0-1v-.28a3.27,3.27,0,0,0-.47-1.7,1.54,1.54,0,0,0-1.35-.81,4.39,4.39,0,0,0-.81.11l-.26.06a8.29,8.29,0,0,1-4.58-.09,1.48,1.48,0,0,0-1.92.73,3.19,3.19,0,0,0-.48,1.7c0,.08,0,.17,0,.29a4.41,4.41,0,0,1,0,1,1.69,1.69,0,0,1-.15.37,3,3,0,0,0-.26.64h0a3.12,3.12,0,0,1,0-.54q0-.33,0-.66c0-.26,0-.45-.08-.74,0-.1,0-.22,0-.35l0-.22a2.31,2.31,0,0,1,0-.83l0-.05Zm3.77,25.28v-.32c0-.09,0-.19,0-.29s0-.19,0-.29l0-.37c0-.11,0-.23,0-.35s0-.28,0-.43,0-.26,0-.41,0-.31,0-.46,0-.29,0-.44l.06-.51.06-.43c0-.2,0-.4.08-.6s0-.24,0-.35c0-.32.1-.63.16-.93.29-1.49.62-2.65.78-3.21a3.74,3.74,0,0,0,.12-.45,1.18,1.18,0,0,1,0-.25v0a.47.47,0,0,1,.16,0h0a.35.35,0,0,1,.14,0h0v0c0,.08,0,.17,0,.26a.43.43,0,0,0,0,.11l0,.14v0a1.45,1.45,0,0,1,.06.19c.16.55.49,1.71.77,3.2.06.3.12.61.16.93,0,.11,0,.22,0,.34l.09.61c0,.13,0,.27,0,.41l.06.53c0,.14,0,.27,0,.41s0,.34.05.5,0,.26,0,.38,0,.31,0,.45l0,.35c0,.12,0,.25,0,.37s0,.19,0,.28,0,.21,0,.3v.32c-.4,0-.81.05-1.21.06l-.57,0c-.44,0-.88,0-1.32-.07-.15,0-.29,0-.43,0Zm2.73-11.6a2.64,2.64,0,0,1-.15.29,3.36,3.36,0,0,1-.39.54,1.1,1.1,0,0,0-.4-.08h0a1.16,1.16,0,0,0-.42.07,2.7,2.7,0,0,1-.4-.54,2.11,2.11,0,0,1-.16-.34v0a.91.91,0,0,1,.11-.16l.28-.28.09-.08.09-.07a1.83,1.83,0,0,1,.33,0h.31l.27,0,.15.1.09.06c.08.08.17.16.25.25l0,.06a1,1,0,0,1,0,.14.26.26,0,0,1,0,.08Zm1.28-2.63a7,7,0,0,1-1.25.64l-.55.25-.15.08a2,2,0,0,0-.25.14l-.28-.14-.14-.07-.51-.22a6.48,6.48,0,0,1-1.37-.68,1.85,1.85,0,0,1-.4-.39l-.07-.13a1,1,0,0,1-.12-.23s0-.08,0-.13l0,0h0l.07,0a5.1,5.1,0,0,0,.67.43,4.33,4.33,0,0,0,4.16,0,5.87,5.87,0,0,0,.67-.43l.07,0h0l0,0v.08a1,1,0,0,1-.17.38,1.9,1.9,0,0,1-.43.42Zm.92,1.93c-.19.41-.57,1.09-.82,1.52l-.27-.56-.07-.14c-.07-.15-.14-.28-.21-.41l-.06-.09v0h0v0a2.1,2.1,0,0,0-.22-.3,2.73,2.73,0,0,0-.54-.48l.27-.13.06,0a7.08,7.08,0,0,0,1.37-.7l.28-.25V143l0-.2a2.79,2.79,0,0,0,.34-.43,1.91,1.91,0,0,1,.14.52,2.67,2.67,0,0,1-.29,1.57Zm-5.82-1.37a7.45,7.45,0,0,0,1.52.76l.1,0,.16.06a4.64,4.64,0,0,0-.5.49,1.5,1.5,0,0,0-.19.25.41.41,0,0,0-.07.11,1,1,0,0,0-.08.11h0v0l0,.09c-.07.11-.13.22-.19.33l-.09.16c-.1.17-.19.35-.27.52-.41-.71-.7-1.25-.85-1.57a2.23,2.23,0,0,1-.14-2.08,2.49,2.49,0,0,0,.66.71ZM124.9,155l-.05,0-.38.21-.11.05-.43.2-.19.08-.47.19-.28.1-.48.17-.37.1-.5.15-.46.1-.52.12-.54.08-.48.08v-.15a1.55,1.55,0,0,0,0-.21c0-.1,0-.21,0-.32s0-.19,0-.29l0-.4,0-.33c0-.15,0-.31,0-.47l0-.37c0-.17,0-.35,0-.52s0-.25,0-.38,0-.38-.07-.57,0-.25,0-.37l-.09-.64c0-.1,0-.2,0-.3-.05-.31-.1-.61-.16-.91-.29-1.52-.63-2.7-.79-3.26h0v0a2.87,2.87,0,0,1-.08-.3,2.87,2.87,0,0,0,0-.31h0l.11-.13.08-.08.14-.19.06-.07.12-.18v0l.06-.09,0-.06,0,.08.07.14a2.56,2.56,0,0,1,.11.24l.06.14c0,.08.07.16.1.23a.36.36,0,0,1,0,.09c0,.09.08.18.1.24a.35.35,0,0,0,.32.21.34.34,0,0,0,.31-.19l.58-1c.23-.41.46-.83.6-1.14s.14-.34.2-.51l0-.09a3.24,3.24,0,0,0,.12-.62s0,0,0-.07l.43.17,0,0,.45.19.14.06.27.11.23.1.38.18a3.4,3.4,0,0,0,.7.17,7.65,7.65,0,0,1,3.58,1.44c1,.94,1.09,2.62,1.16,5.16,0,.65,0,1.31.08,2a4.67,4.67,0,0,1-3.34,1.65.43.43,0,0,0-.24.1l-.31.18Zm-23.7-11.13a.55.55,0,0,1-.44.18,3.12,3.12,0,0,0-1.83.47,5.43,5.43,0,0,1-1.58.57l-.37.05c-.71.09-1.68.21-2,2l-.06.29a7.36,7.36,0,0,1-.41,1.46,3,3,0,0,1-.61,1,.18.18,0,0,0-.06.09,5.59,5.59,0,0,0-.45,1.61h0l0,.07a2.64,2.64,0,0,0,.08.84,4.66,4.66,0,0,0,.4.95,4.2,4.2,0,0,1,.5,1.33,2,2,0,0,1-.37,1.62l0,0c-.42.18-1.33.55-2.09.83l-.73.21h0c-.46.12-.82.22-1.13.32a3.22,3.22,0,0,1,1.13-2,.35.35,0,0,0,.12-.24c0-.13,0-.24,0-.35a2.11,2.11,0,0,1,.06-.31h0a.11.11,0,0,1,0,0h0l0-.07a4.06,4.06,0,0,1,.34-1,.42.42,0,0,0,0-.22,2.65,2.65,0,0,1,0-1.22.37.37,0,0,0,0-.18,4.32,4.32,0,0,1-.16-.78,5.88,5.88,0,0,1,.07-1.87l0-.17c0-.26.06-.53.08-.81a6.91,6.91,0,0,1,.18-1.29l0-.11h0l.09-.35.14-.5a8.3,8.3,0,0,1,1.4-2.9,6.18,6.18,0,0,1,3.22-2.4,6.05,6.05,0,0,1,4.13.65,1.12,1.12,0,0,1,.41,1A5.61,5.61,0,0,1,101.2,143.88ZM89.87,155a4.07,4.07,0,0,1-.7.1.51.51,0,0,0-.24.1,3.54,3.54,0,0,1-.31.19l-.05,0-.38.2-.11,0-.43.21-.19.07-.47.2-.27.09-.49.17-.37.11c-.16.05-.32.1-.5.14l-.46.11-.52.11-.54.09-.48.07s0-.08,0-.12v-.24c0-.09,0-.19,0-.3s0-.2,0-.31l0-.37,0-.36,0-.45c0-.13,0-.25,0-.38s0-.34-.05-.51,0-.26,0-.39,0-.38-.07-.57,0-.24,0-.37l-.09-.63c0-.1,0-.2,0-.31,0-.31-.1-.62-.16-.91-.29-1.52-.63-2.7-.79-3.27h0c0-.16-.09-.3-.09-.33s0-.22,0-.31h0a.58.58,0,0,0,.1-.12l.09-.09.12-.16.08-.1.09-.14,0-.07,0-.09,0-.06,0,.09,0,.12.12.26a.61.61,0,0,1,0,.12c0,.09.08.17.11.25l0,.08.1.25a.35.35,0,0,0,.32.21.32.32,0,0,0,.29-.17s.86-1.43,1.2-2.17c.07-.17.14-.34.2-.52l0-.09a3.24,3.24,0,0,0,.12-.62s0,0,0-.07h0l.06,0,.3.12.11.05.39.16.19.08.35.15.53.24a4.23,4.23,0,0,0,.7.18,7.55,7.55,0,0,1,3.58,1.44.57.57,0,0,1,.11.11v0l-.17.68a7.37,7.37,0,0,0-.2,1.41c0,.24,0,.51-.08.76l0,.16a6.85,6.85,0,0,0-.07,2.07,5.39,5.39,0,0,0,.16.8,3.4,3.4,0,0,0,0,1.31,4.57,4.57,0,0,0-.38,1.15v.05l-.46.15ZM74.13,144.8l.43-.09a1.38,1.38,0,0,0,.27-.08l.54-.24.22-.1.34-.14.24-.1.29-.12.16-.07.1,0h0a.14.14,0,0,1,0,.06,2.94,2.94,0,0,0,.12.59l0,.1c.06.18.13.35.21.53.32.7,1.11,2,1.2,2.17a.32.32,0,0,0,.3.17h0a.36.36,0,0,0,.29-.2L79,147l.06-.11.1-.2.06-.13.13-.23.06-.12.06-.1h0c.07.12.15.24.23.35l0,0a4.15,4.15,0,0,0,.27.32l0,0v0c0,.08,0,.19,0,.29s0,.15-.08.28l0,.06h0c-.16.56-.49,1.74-.79,3.26-.06.29-.11.6-.16.91,0,.11,0,.22,0,.32s-.06.41-.08.62,0,.25,0,.38-.05.37-.07.55,0,.27,0,.4,0,.34-.05.5,0,.26,0,.39,0,.3,0,.44,0,.24,0,.36l0,.38c0,.11,0,.21,0,.31s0,.2,0,.29a2,2,0,0,1,0,.25V157L78,157l-.54-.09-.52-.11-.47-.11-.46-.13-.41-.12-.4-.14-.37-.13-.33-.13-.32-.14-.26-.12-.28-.13-.17-.09-.25-.14a2.48,2.48,0,0,1-.31-.19.51.51,0,0,0-.24-.1,4.64,4.64,0,0,1-3.34-1.64c0-.73,0-1.4.07-2,.08-2.55.13-4.23,1.16-5.17a5.36,5.36,0,0,1,1.85-1,14.77,14.77,0,0,1,1.74-.44Zm1.58-7.19h0l-.07-.08,0,0a.62.62,0,0,1-.09-.12l0-.07-.09-.17a1,1,0,0,1,0-.1v0h0l0,0,.13,0,0,0a.34.34,0,0,0,.15-.18c.11-.33.32-1,.36-1.1a1,1,0,0,1,.09-.15,1.34,1.34,0,0,0,.17-.27,1.49,1.49,0,0,0,0-.91,1.26,1.26,0,0,1,0-.28,1.28,1.28,0,0,1,.27-.84,2.87,2.87,0,0,1,2.27-1.3,2.46,2.46,0,0,1,.79.31,2.54,2.54,0,0,0,1.1.38,2.63,2.63,0,0,0,1-.17l.11,0a8.74,8.74,0,0,1,1.6-.33A2.83,2.83,0,0,0,84,132l.16-.05.24-.1.14.17a3.12,3.12,0,0,1,.32.4,2,2,0,0,1,.31,1c0,.13,0,.26,0,.41a3.05,3.05,0,0,0,0,.74,20.82,20.82,0,0,0,.66,2.21.34.34,0,0,0,.32.23h0a.32.32,0,0,0,.19-.07h0l0,.08a.61.61,0,0,0,0,.12l-.09.17,0,.08-.07.11,0,0,0,.06a.35.35,0,0,0-.37.25s-.19.72-.3,1a6,6,0,0,1-.41.8,6.52,6.52,0,0,1-1,1.2v-.1l0,.13a5.67,5.67,0,0,1-1.34,1,3.69,3.69,0,0,1-3.53,0,5.7,5.7,0,0,1-.88-.6l-.1-.08-.08-.08h0a5.28,5.28,0,0,1-.62-.63,1.58,1.58,0,0,0-.12-.15c-.15-.2-.3-.4-.43-.61l-.12-.2a5.26,5.26,0,0,1-.36-.71c-.1-.23-.26-.81-.31-1a.33.33,0,0,0-.33-.25Zm8.38-8.86a1.41,1.41,0,0,1,.48.49,1.07,1.07,0,0,1,.18.58,6.12,6.12,0,0,1-.34,1.18,1.52,1.52,0,0,1-1,.41,9.48,9.48,0,0,0-1.73.35l-.11,0a2.43,2.43,0,0,1-.7.15h-.06a1.45,1.45,0,0,1-.41-.1,4.11,4.11,0,0,1-.42-.21,2.91,2.91,0,0,0-1-.37A3.49,3.49,0,0,0,76,132.84a1.94,1.94,0,0,0-.39,1.29,2.38,2.38,0,0,0,.06.37.53.53,0,0,1-.06.62,1.44,1.44,0,0,0-.19.31.16.16,0,0,1,0,.08.62.62,0,0,0,0-.14l0-.07,0-.06a4.19,4.19,0,0,1-.74-1.92,5.1,5.1,0,0,1,.17-1.35,5.73,5.73,0,0,1,.78-2,5.44,5.44,0,0,1,2.56-1.87,7.08,7.08,0,0,1,1.5-.34l.14,0,.24,0a7.86,7.86,0,0,1,1.81-.09A3.74,3.74,0,0,1,83,128a3.32,3.32,0,0,1,.62.44l.44.34Zm2.58,2.17,0,.05c.09.17.18.34.26.51h0a3.37,3.37,0,0,1,.24,2,3.44,3.44,0,0,1-.32.9,1.09,1.09,0,0,0-.09.23l-.12.3a.36.36,0,0,0-.21.19l-.25.59a11.06,11.06,0,0,1-.35-1.25,2.91,2.91,0,0,1,0-.59,3.7,3.7,0,0,0,0-.47,2.43,2.43,0,0,0-.13-.76,2.24,2.24,0,0,0-.28-.63,3.81,3.81,0,0,0-.39-.49l-.12-.15a.16.16,0,0,0,0-.07l0-.06.06-.12,0-.08.06-.18,0,0c0-.08,0-.16.07-.24v0l.06-.21v-.06c0-.05,0-.1,0-.15v-.06s0-.08,0-.11v-.08h0a1.49,1.49,0,0,1,.44.17l.06,0a1.59,1.59,0,0,1,.36.32l0,.06a3,3,0,0,1,.29.44Zm-7.53,26.2h0V157c0-.06,0-.12,0-.19s0-.21,0-.32,0-.17,0-.26,0-.26,0-.4,0-.21,0-.32,0-.31,0-.47l0-.36.06-.54,0-.36c0-.2,0-.39.07-.58s0-.25.05-.38,0-.41.08-.62,0-.22,0-.33c0-.32.11-.63.16-.93.22-1.11.46-2,.63-2.67l.15-.53h0l0-.12a3,3,0,0,0,.08-.32,2,2,0,0,1,0-.26v0h0a.32.32,0,0,1,.17,0,.29.29,0,0,1,.16,0v.06l0,.23,0,.13h0c0,.07,0,.16.09.31.15.56.48,1.72.77,3.2.06.31.12.62.16.93,0,.12,0,.23,0,.34l.09.62c0,.13,0,.27,0,.4l.06.54c0,.14,0,.28,0,.42s0,.33.05.49,0,.26,0,.39l0,.44,0,.34c0,.13,0,.26,0,.38s0,.18,0,.27,0,.22,0,.31a1.15,1.15,0,0,1,0,.18.71.71,0,0,1,0,.14c-.59,0-1.18.08-1.77.08s-1.18,0-1.77-.08Zm2.73-11.6-.14.28a3.69,3.69,0,0,1-.4.55.93.93,0,0,0-.4-.09h0a1.23,1.23,0,0,0-.42.07,3,3,0,0,1-.4-.53c0-.09-.09-.16-.12-.23s0,0,0-.06l0-.1.11-.16.28-.28s.06,0,.08-.07l.1-.08.32,0h.29l.31,0,.15.1.07.06a1.42,1.42,0,0,1,.25.24l.05.06a.83.83,0,0,1,0,.15.41.41,0,0,1,0,.08Zm1.28-2.63a7,7,0,0,1-1.25.63l-.55.26-.15.07c-.08.05-.18.09-.25.14a2.24,2.24,0,0,0-.27-.13l-.16-.08-.49-.21a7.38,7.38,0,0,1-1.38-.68,1.8,1.8,0,0,1-.39-.39l-.08-.13-.12-.23v0l.62.52-.19-.26.26.15a4.33,4.33,0,0,0,4.16,0,7.11,7.11,0,0,0,.74-.47l.07-.05v0l0,0v.09a1.46,1.46,0,0,1-.6.8Zm.92,1.92c-.18.39-.52,1-.82,1.53l-.26-.56-.08-.15-.21-.39-.06-.11v0h0a2.18,2.18,0,0,0-.22-.31,3.09,3.09,0,0,0-.54-.48l.35-.15a7.86,7.86,0,0,0,1.35-.7,3.47,3.47,0,0,0,.29-.25v.23l.05-.28a2.59,2.59,0,0,0,.32-.42,2.46,2.46,0,0,1,.15.53,2.72,2.72,0,0,1-.3,1.56Zm-5.82-1.37a7.2,7.2,0,0,0,1.52.76l.26.11a4.56,4.56,0,0,0-.5.48l-.2.27-.07.1-.07.11h0v0l-.06.09c-.06.12-.13.23-.2.36l-.09.15c-.09.17-.18.34-.25.49l-.22-.37c-.22-.4-.48-.88-.63-1.2q-.08-.17-.15-.36a2.11,2.11,0,0,1-.15-1.19,3.13,3.13,0,0,1,.16-.52,2.75,2.75,0,0,0,.66.7Zm38.25-16.36v0h0v0Z"></path><path class="cls-1" d="M181.1,13.1V4.88h3.61a2.58,2.58,0,0,1,.22,5.15h-2.39V13.1Zm4.81-5.64a1.3,1.3,0,0,0-1.28-1.32h-2.09V8.76h2a1.3,1.3,0,0,0,1.4-1.18Z"></path><path class="cls-1" d="M188.55,13.1V7.15h1.3V8a2.54,2.54,0,0,1,1.93-1V8.29a1.8,1.8,0,0,0-.4,0,2,2,0,0,0-1.53.78V13.1Z"></path><path class="cls-1" d="M192.46,10.12a3.06,3.06,0,1,1,3.06,3.13,3,3,0,0,1-3.06-2.9Zm4.78,0a1.74,1.74,0,1,0-1.72,2,1.79,1.79,0,0,0,1.73-1.84.66.66,0,0,0,0-.14Z"></path><path class="cls-1" d="M204.08,13.1v-.81a2.43,2.43,0,0,1-1.91,1c-1.53,0-2.65-1.16-2.65-3.12A2.78,2.78,0,0,1,201.89,7l.28,0a2.39,2.39,0,0,1,1.91,1V4.88h1.3V13.1Zm0-1.79V9a1.93,1.93,0,0,0-1.54-.8,2,2,0,0,0,0,3.95,2,2,0,0,0,1.54-.79Z"></path><path class="cls-1" d="M211.07,13.1v-.79a2.9,2.9,0,0,1-2.11.94,1.69,1.69,0,0,1-1.9-1.44,2.26,2.26,0,0,1,0-.45V7.15h1.3v3.74c0,.93.47,1.21,1.19,1.21a2,2,0,0,0,1.53-.78V7.15h1.29V13.1Z"></path><path class="cls-1" d="M213.67,10.12A3,3,0,0,1,216.52,7h.23A2.66,2.66,0,0,1,219,8.06l-.85.79a1.59,1.59,0,0,0-1.36-.71,2,2,0,0,0,0,4,1.61,1.61,0,0,0,1.36-.7l.85.79a2.66,2.66,0,0,1-2.28,1.05,3,3,0,0,1-3.08-2.89Z"></path><path class="cls-1" d="M220.43,11.72V8.28h-1V7.15h1V5.52h1.29V7.15h1.21V8.28h-1.21V11.4c0,.4.2.7.57.7a.83.83,0,0,0,.58-.21l.3,1a1.72,1.72,0,0,1-1.22.39,1.37,1.37,0,0,1-1.52-1.2A.92.92,0,0,1,220.43,11.72Z"></path><path class="cls-1" d="M223.58,12.32l.59-.93a3.11,3.11,0,0,0,2,.83c.77,0,1.17-.33,1.17-.8,0-1.17-3.6-.33-3.6-2.61,0-1,.84-1.81,2.34-1.81a3.41,3.41,0,0,1,2.32.84l-.55.91A2.37,2.37,0,0,0,226.12,8c-.68,0-1.11.3-1.11.72,0,1.06,3.6.27,3.6,2.64,0,1-.87,1.85-2.48,1.85A3.65,3.65,0,0,1,223.58,12.32Z"></path><path class="cls-1" d="M232.59,11.94l.8-1.11A3.57,3.57,0,0,0,236,12c1.19,0,1.65-.58,1.65-1.13,0-1.72-4.79-.65-4.79-3.68,0-1.36,1.2-2.4,3-2.4a4.3,4.3,0,0,1,3.08,1.14L238.1,7A3.31,3.31,0,0,0,235.72,6c-.85,0-1.39.41-1.39,1,0,1.53,4.78.58,4.78,3.65,0,1.37-1,2.54-3.18,2.54A4.44,4.44,0,0,1,232.59,11.94Z"></path><path class="cls-1" d="M240,10.12a3.06,3.06,0,1,1,3.05,3.13,3,3,0,0,1-3.06-2.9A1.69,1.69,0,0,1,240,10.12Zm4.78,0a1.74,1.74,0,1,0-1.73,2,1.79,1.79,0,0,0,1.74-1.84s0-.09,0-.14Z"></path><path class="cls-1" d="M247.47,13.1V4.88h1.29V13.1Z"></path><path class="cls-1" d="M254.63,13.1v-.81a2.43,2.43,0,0,1-1.91,1c-1.53,0-2.65-1.16-2.65-3.12A2.77,2.77,0,0,1,252.43,7l.29,0a2.41,2.41,0,0,1,1.91,1V4.88h1.29V13.1Zm0-1.79V9a1.93,1.93,0,0,0-1.54-.8,2,2,0,0,0,0,3.95,2,2,0,0,0,1.54-.79Z"></path><path class="cls-1" d="M182.54,23.74a3.06,3.06,0,1,1,3.05,3.13,3,3,0,0,1-3.05-2.9A.88.88,0,0,1,182.54,23.74Zm4.78,0a1.74,1.74,0,1,0-1.73,2,1.79,1.79,0,0,0,1.74-1.84c0-.05,0-.1,0-.15Z"></path><path class="cls-1" d="M190,26.72V20.77h1.29v.88a2.55,2.55,0,0,1,1.94-1v1.28a1.84,1.84,0,0,0-.41,0,2.08,2.08,0,0,0-1.53.79v4Z"></path><path class="cls-1" d="M197.45,26.72V18.51h3.61a2.58,2.58,0,1,1,.22,5.15h-2.39v3.06Zm4.82-5.64A1.3,1.3,0,0,0,201,19.77h-2.1v2.62h2a1.29,1.29,0,0,0,1.39-1.18.62.62,0,0,0,0-.13Z"></path><path class="cls-1" d="M208.93,26.72v-.78a2.87,2.87,0,0,1-2.11.93,1.69,1.69,0,0,1-1.91-1.44,1.62,1.62,0,0,1,0-.44V20.77h1.29v3.75c0,.92.47,1.21,1.2,1.21a2,2,0,0,0,1.53-.78V20.77h1.29v5.95Z"></path><path class="cls-1" d="M211.9,26.72V20.77h1.29v.88a2.55,2.55,0,0,1,1.94-1v1.28a1.9,1.9,0,0,0-.41,0,2.08,2.08,0,0,0-1.53.79v4Z"></path><path class="cls-1" d="M215.81,23.74a3,3,0,0,1,2.85-3.11h.23a2.68,2.68,0,0,1,2.27,1.06l-.85.79a1.58,1.58,0,0,0-1.36-.7,2,2,0,0,0,0,3.95,1.58,1.58,0,0,0,1.36-.7l.85.79a2.66,2.66,0,0,1-2.27,1.06A3,3,0,0,1,215.8,24,1.93,1.93,0,0,1,215.81,23.74Z"></path><path class="cls-1" d="M226.33,26.72V23c0-.93-.48-1.21-1.21-1.21a2,2,0,0,0-1.53.8v4.15H222.3V18.51h1.29v3.08a2.81,2.81,0,0,1,2.11-1,1.69,1.69,0,0,1,1.92,1.44,1.62,1.62,0,0,1,0,.44v4.21Z"></path><path class="cls-1" d="M232.94,26.72v-.64a2.51,2.51,0,0,1-1.93.79A2,2,0,0,1,229,25V24.9A1.91,1.91,0,0,1,230.84,23H231a2.48,2.48,0,0,1,1.93.76v-.89c0-.69-.57-1.11-1.4-1.11a2.41,2.41,0,0,0-1.76.76l-.53-.9a3.55,3.55,0,0,1,2.5-1c1.32,0,2.48.56,2.48,2.16v3.94Zm0-1.35v-.9a1.76,1.76,0,0,0-1.42-.62,1.08,1.08,0,0,0-.38,2.13.81.81,0,0,0,.38,0,1.75,1.75,0,0,0,1.42-.61Z"></path><path class="cls-1" d="M235.39,26,236,25a3.06,3.06,0,0,0,2,.84c.78,0,1.17-.33,1.17-.8,0-1.17-3.6-.34-3.6-2.61,0-1,.84-1.82,2.35-1.82a3.38,3.38,0,0,1,2.31.84l-.54.91a2.41,2.41,0,0,0-1.76-.71c-.68,0-1.11.31-1.11.73,0,1.06,3.6.27,3.6,2.63,0,1.05-.88,1.85-2.48,1.85A3.62,3.62,0,0,1,235.39,26Z"></path><path class="cls-1" d="M241.36,23.74a3,3,0,0,1,2.89-3.11h.12a3,3,0,0,1,2.95,2.95c0,.1,0,.2,0,.3v.3h-4.6a1.8,1.8,0,0,0,1.9,1.64,2.53,2.53,0,0,0,1.69-.65l.59.85a3.51,3.51,0,0,1-2.42.86A3,3,0,0,1,241.35,24,2.44,2.44,0,0,1,241.36,23.74Zm3-2.06a1.64,1.64,0,0,0-1.67,1.58h3.35a1.6,1.6,0,0,0-1.61-1.58h-.07Z"></path><path class="cls-1" d="M252.78,26.72v-.81a2.4,2.4,0,0,1-1.91,1c-1.53,0-2.65-1.16-2.65-3.12a2.75,2.75,0,0,1,2.36-3.1l.29,0a2.42,2.42,0,0,1,1.91,1V18.51h1.29v8.21Zm0-1.78V22.57a2,2,0,0,0-1.54-.8,2,2,0,0,0,0,4,2,2,0,0,0,1.54-.79Z"></path><circle class="cls-1" cx="218.49" cy="72.53" r="37.26"></circle><path class="cls-5" d="M226.65,55.1H210.34a2.73,2.73,0,0,1-2.68-2.78v-.76a2.74,2.74,0,0,1,2.68-2.79h16.31a2.75,2.75,0,0,1,2.68,2.79v.76A2.74,2.74,0,0,1,226.65,55.1Zm-16.31-5.31a1.73,1.73,0,0,0-1.67,1.77v.76a1.73,1.73,0,0,0,1.67,1.77h16.31a1.72,1.72,0,0,0,1.66-1.77v-.76a1.72,1.72,0,0,0-1.66-1.77Z"></path><path class="cls-5" d="M202.46,73.51h-1V56.33a5,5,0,0,1,5-4.9h1.68v1h-1.68a4,4,0,0,0-4,3.89Z"></path><path class="cls-5" d="M235.54,73.51h-1V56.33a4,4,0,0,0-4-3.89h-1.68v-1h1.68a5,5,0,0,1,5,4.9Z"></path><rect class="cls-5" x="200.76" y="79.43" width="35.62" height="1.01"></rect><rect class="cls-5" x="203.52" y="87.2" width="30.28" height="1.01"></rect><rect class="cls-5" x="198.64" y="72.53" width="40.06" height="1.01"></rect><rect class="cls-5" x="215.69" y="84.02" width="23.05" height="1.01" transform="translate(125.54 304.61) rotate(-85.61)"></rect><rect class="cls-5" x="218.16" y="73.04" width="1.01" height="22.74"></rect><rect class="cls-5" x="209.41" y="73" width="1.01" height="22.81" transform="translate(-5.88 16.44) rotate(-4.42)"></rect><polygon class="cls-5" points="231.6 96.28 206.09 96.28 196.93 71 197.89 70.65 206.8 95.27 230.87 95.27 239.09 70.68 240.05 71 231.6 96.28"></polygon><circle class="cls-6" cx="339.97" cy="146.99" r="37.26" transform="translate(140.42 459.02) rotate(-80.78)"></circle><path class="cls-5" d="M346,143.94a6.78,6.78,0,1,1-2.92-2.95l1.13-1.24a8.39,8.39,0,1,0,3.06,3.12Z"></path><path class="cls-5" d="M351.26,139.47a13.57,13.57,0,1,1-3.51-3.62l1.11-1.21a15.27,15.27,0,1,0,3.65,3.77Z"></path><path class="cls-5" d="M357,134.6a21.08,21.08,0,1,1-4.17-4.3l1.1-1.2a22.7,22.7,0,1,0,4.32,4.44Z"></path><path class="cls-5" d="M356.73,124.74l-6.33,6a1.27,1.27,0,0,0-.36,1l.31,3.74c0,.14-8.35,8.31-10.42,10.33a.75.75,0,0,0,.08,1h0a.75.75,0,0,0,1,.13h0c2.08-2.07,10.35-10.25,10.49-10.23l3.71.51a1.25,1.25,0,0,0,1.06-.31l6.32-6c.21-.19,0-.61-.31-.64l-4.79-.45-.19-4.8C357.34,124.76,356.94,124.54,356.73,124.74Zm-5.62,7,5.23-5,.13,3.22-5.1,4.83Zm4.26,4.5-3.08-.42,5.1-4.84,3.21.3Z"></path></svg> 